<mxfile host="65bd71144e">
    <diagram name="Enhanced Sliding Window Architecture - Multi-Model Fixed" id="enhanced-sliding-window-multi-model-fixed">
        <mxGraphModel dx="3205" dy="2100" grid="0" gridSize="10" guides="1" tooltips="1" connect="1" arrows="1" fold="1" page="0" pageScale="1" pageWidth="1800" pageHeight="1200" math="0" shadow="0">
            <root>
                <mxCell id="0"/>
                <mxCell id="1" parent="0"/>
                <mxCell id="68" value="" style="rounded=1;whiteSpace=wrap;html=1;" vertex="1" parent="1">
                    <mxGeometry x="771" y="-66" width="872" height="355" as="geometry"/>
                </mxCell>
                <mxCell id="67" value="" style="rounded=1;whiteSpace=wrap;html=1;" vertex="1" parent="1">
                    <mxGeometry x="26" y="-87" width="478" height="354" as="geometry"/>
                </mxCell>
                <mxCell id="input-title" value="&lt;p style=&quot;margin: 0px; font-variant-numeric: normal; font-variant-east-asian: normal; font-variant-alternates: normal; font-size-adjust: none; font-kerning: auto; font-optical-sizing: auto; font-feature-settings: normal; font-variation-settings: normal; font-variant-position: normal; font-variant-emoji: normal; font-stretch: normal; line-height: normal; color: rgb(0, 0, 0);&quot; class=&quot;p1&quot;&gt;&lt;font style=&quot;font-size: 36px;&quot;&gt;Enhanced IaC Preprocessing&lt;/font&gt;&lt;/p&gt;" style="text;html=1;align=left;verticalAlign=middle;whiteSpace=wrap;rounded=0;fontSize=16;fontStyle=1;" parent="1" vertex="1">
                    <mxGeometry x="131" y="-52" width="378" height="25" as="geometry"/>
                </mxCell>
                <mxCell id="preprocessing-title" value="&lt;p style=&quot;margin: 0px; font-variant-numeric: normal; font-variant-east-asian: normal; font-variant-alternates: normal; font-size-adjust: none; font-kerning: auto; font-optical-sizing: auto; font-feature-settings: normal; font-variation-settings: normal; font-variant-position: normal; font-variant-emoji: normal; font-stretch: normal; line-height: normal; color: rgb(0, 0, 0);&quot; class=&quot;p1&quot;&gt;&lt;font style=&quot;font-size: 36px;&quot;&gt;Sliding-Window Tokenization&lt;/font&gt;&lt;/p&gt;" style="text;html=1;align=left;verticalAlign=middle;whiteSpace=wrap;rounded=0;fontSize=16;fontStyle=1;" parent="1" vertex="1">
                    <mxGeometry x="926" y="-56.5" width="550" height="25" as="geometry"/>
                </mxCell>
                <mxCell id="arrow1" value="" style="endArrow=classic;html=1;rounded=0;exitX=1;exitY=0.5;exitDx=0;exitDy=0;strokeWidth=3;entryX=0;entryY=0.5;entryDx=0;entryDy=0;" parent="1" source="89" target="67" edge="1">
                    <mxGeometry width="50" height="50" relative="1" as="geometry">
                        <mxPoint x="-191.79000000000013" y="143.1249999999999" as="sourcePoint"/>
                        <mxPoint x="-106" y="138" as="targetPoint"/>
                    </mxGeometry>
                </mxCell>
                <mxCell id="arrow2" value="" style="endArrow=classic;html=1;rounded=0;strokeWidth=3;exitX=0.992;exitY=0.67;exitDx=0;exitDy=0;exitPerimeter=0;entryX=0.004;entryY=0.605;entryDx=0;entryDy=0;entryPerimeter=0;" parent="1" edge="1">
                    <mxGeometry width="50" height="50" relative="1" as="geometry">
                        <mxPoint x="496.6860000000004" y="93.76000000000029" as="sourcePoint"/>
                        <mxPoint x="770.9979999999994" y="92.35499999999963" as="targetPoint"/>
                    </mxGeometry>
                </mxCell>
                <mxCell id="18" value="" style="endArrow=classic;html=1;rounded=0;exitX=1;exitY=0.5;exitDx=0;exitDy=0;strokeWidth=3;entryX=0;entryY=0.5;entryDx=0;entryDy=0;" parent="1" source="29" target="31" edge="1">
                    <mxGeometry width="50" height="50" relative="1" as="geometry">
                        <mxPoint x="865" y="232.49999999999977" as="sourcePoint"/>
                        <mxPoint x="869" y="328" as="targetPoint"/>
                    </mxGeometry>
                </mxCell>
                <mxCell id="30" value="" style="group" vertex="1" connectable="0" parent="1">
                    <mxGeometry x="803" y="64" width="307" height="193" as="geometry"/>
                </mxCell>
                <mxCell id="29" value="" style="rounded=1;whiteSpace=wrap;html=1;fontSize=10;align=center;" vertex="1" parent="30">
                    <mxGeometry x="96" width="211" height="153" as="geometry"/>
                </mxCell>
                <mxCell id="28" value="" style="rounded=1;whiteSpace=wrap;html=1;fontSize=10;align=center;" vertex="1" parent="30">
                    <mxGeometry x="44" y="15" width="211" height="153" as="geometry"/>
                </mxCell>
                <mxCell id="24" value="&lt;font style=&quot;font-size: 24px;&quot;&gt;6 windows&amp;nbsp;&lt;/font&gt;&lt;div&gt;&lt;font style=&quot;font-size: 24px;&quot;&gt;(384 tokens,&lt;br&gt;stride: 192&lt;/font&gt;&lt;/div&gt;" style="rounded=1;whiteSpace=wrap;html=1;fontSize=10;align=center;" vertex="1" parent="30">
                    <mxGeometry y="40" width="211" height="153" as="geometry"/>
                </mxCell>
                <mxCell id="31" value="&lt;font style=&quot;color: rgb(63, 63, 63); scrollbar-color: rgb(226, 226, 226) rgb(251, 251, 251); font-size: 24px;&quot;&gt;DistilBERT&lt;br style=&quot;color: rgb(63, 63, 63); scrollbar-color: rgb(226, 226, 226) rgb(251, 251, 251);&quot;&gt;(distilbert-base-uncased)&lt;/font&gt;&lt;div style=&quot;color: rgb(63, 63, 63); scrollbar-color: rgb(226, 226, 226) rgb(251, 251, 251);&quot;&gt;&lt;span style=&quot;scrollbar-color: rgb(226, 226, 226) rgb(251, 251, 251); background-color: rgb(251, 251, 251); color: rgb(27, 94, 32);&quot;&gt;&lt;font style=&quot;color: rgb(63, 63, 63); scrollbar-color: rgb(226, 226, 226) rgb(251, 251, 251);&quot; size=&quot;3&quot;&gt;768-dim embeddings&lt;/font&gt;&lt;/span&gt;&lt;/div&gt;" style="rounded=1;whiteSpace=wrap;html=1;fontSize=10;align=center;" vertex="1" parent="1">
                    <mxGeometry x="1316" y="64" width="211" height="153" as="geometry"/>
                </mxCell>
                <mxCell id="40" value="" style="group" vertex="1" connectable="0" parent="1">
                    <mxGeometry x="718" y="349" width="1055" height="470" as="geometry"/>
                </mxCell>
                <mxCell id="bg-attention" value="" style="rounded=1;whiteSpace=wrap;html=1;strokeWidth=2;opacity=20;" parent="40" vertex="1">
                    <mxGeometry width="1055" height="469.99999999999994" as="geometry"/>
                </mxCell>
                <mxCell id="inter-attention" value="&lt;font style=&quot;&quot;&gt;&lt;font style=&quot;font-size: 24px;&quot;&gt;Inter-Window Multi-Head Attention&lt;/font&gt;&lt;br&gt;&lt;/font&gt;" style="rounded=1;whiteSpace=wrap;html=1;fontSize=11;align=left;spacingLeft=15;" parent="40" vertex="1">
                    <mxGeometry x="346.00264529058114" y="258.9951934714836" width="315.0200400801603" height="161.20319090408947" as="geometry"/>
                </mxCell>
                <mxCell id="37" value="" style="group" vertex="1" connectable="0" parent="40">
                    <mxGeometry x="651.9979959919839" y="27.51745277828718" width="351.4904809619238" height="245.90317256556023" as="geometry"/>
                </mxCell>
                <mxCell id="35" value="" style="rounded=1;whiteSpace=wrap;html=1;fontSize=10;align=center;" vertex="1" parent="37">
                    <mxGeometry x="128.43937875751502" width="223.0511022044088" height="209.01769668072617" as="geometry"/>
                </mxCell>
                <mxCell id="36" value="" style="rounded=1;whiteSpace=wrap;html=1;fontSize=10;align=center;" vertex="1" parent="37">
                    <mxGeometry x="65.54108216432866" y="13.661287364753345" width="223.0511022044088" height="209.01769668072617" as="geometry"/>
                </mxCell>
                <mxCell id="33" value="&lt;font style=&quot;font-size: 24px;&quot;&gt;&lt;span style=&quot;color: rgb(63, 63, 63);&quot;&gt;Intra-Window&lt;/span&gt;&lt;br style=&quot;color: rgb(63, 63, 63); scrollbar-color: rgb(226, 226, 226) rgb(251, 251, 251);&quot;&gt;&lt;span style=&quot;color: rgb(63, 63, 63);&quot;&gt;Attention Pooling&lt;/span&gt;&lt;br&gt;&lt;/font&gt;" style="rounded=1;whiteSpace=wrap;html=1;fontSize=10;align=center;" vertex="1" parent="37">
                    <mxGeometry y="36.88547588483404" width="223.0511022044088" height="209.01769668072617" as="geometry"/>
                </mxCell>
                <mxCell id="93" value="" style="shape=image;verticalLabelPosition=bottom;labelBackgroundColor=default;verticalAlign=top;aspect=fixed;imageAspect=0;image=https://cdn-icons-png.flaticon.com/512/4440/4440466.png;" vertex="1" parent="37">
                    <mxGeometry x="149.06200400801623" y="183.48254722171282" width="56" height="56" as="geometry"/>
                </mxCell>
                <mxCell id="attention-title" value="&lt;font style=&quot;font-size: 36px;&quot;&gt;Dual Attention Mechanism&lt;/font&gt;" style="text;html=1;align=center;verticalAlign=middle;whiteSpace=wrap;rounded=0;fontSize=16;fontStyle=1;" parent="40" vertex="1">
                    <mxGeometry x="391.99777555110217" y="27.512505043095537" width="253.70741482965929" height="34.153218411883365" as="geometry"/>
                </mxCell>
                <mxCell id="final-repr" value="&lt;font style=&quot;font-size: 24px;&quot;&gt;Final Combined Representation&lt;br&gt;(768-dim)&lt;/font&gt;" style="rounded=1;whiteSpace=wrap;html=1;fontSize=12;fontWeight=bold;align=center;" parent="40" vertex="1">
                    <mxGeometry x="84.99785571142284" y="26.003170731707286" width="287.53507014028054" height="131.34780487804878" as="geometry"/>
                </mxCell>
                <mxCell id="63" value="" style="endArrow=classic;html=1;rounded=0;exitX=0.5;exitY=1;exitDx=0;exitDy=0;strokeWidth=3;entryX=1;entryY=0.5;entryDx=0;entryDy=0;" edge="1" parent="40" source="33" target="inter-attention">
                    <mxGeometry width="50" height="50" relative="1" as="geometry">
                        <mxPoint x="792.5" y="334.1" as="sourcePoint"/>
                        <mxPoint x="641.5" y="339.1" as="targetPoint"/>
                        <Array as="points">
                            <mxPoint x="763.5" y="337"/>
                        </Array>
                    </mxGeometry>
                </mxCell>
                <mxCell id="64" value="" style="endArrow=classic;html=1;rounded=0;exitX=0;exitY=0.5;exitDx=0;exitDy=0;strokeWidth=3;entryX=0.5;entryY=1;entryDx=0;entryDy=0;" edge="1" parent="40" source="inter-attention" target="final-repr">
                    <mxGeometry width="50" height="50" relative="1" as="geometry">
                        <mxPoint x="70.5" y="296" as="sourcePoint"/>
                        <mxPoint x="276.5" y="296" as="targetPoint"/>
                        <Array as="points">
                            <mxPoint x="229" y="340"/>
                        </Array>
                    </mxGeometry>
                </mxCell>
                <mxCell id="71" value="&lt;font style=&quot;font-size: 24px;&quot;&gt;&lt;b&gt;3&lt;/b&gt;&lt;/font&gt;" style="ellipse;whiteSpace=wrap;html=1;aspect=fixed;fillColor=#FFB366;" vertex="1" parent="40">
                    <mxGeometry x="-27" y="-37" width="80" height="80" as="geometry"/>
                </mxCell>
                <mxCell id="94" value="" style="shape=image;verticalLabelPosition=bottom;labelBackgroundColor=default;verticalAlign=top;aspect=fixed;imageAspect=0;image=https://cdn-icons-png.flaticon.com/512/4440/4440466.png;" vertex="1" parent="40">
                    <mxGeometry x="596" y="364.20000000000005" width="56" height="56" as="geometry"/>
                </mxCell>
                <mxCell id="44" value="" style="group" vertex="1" connectable="0" parent="1">
                    <mxGeometry x="-417" y="302" width="1020" height="545" as="geometry"/>
                </mxCell>
                <mxCell id="bg-classifier" value="" style="rounded=1;whiteSpace=wrap;html=1;strokeWidth=2;opacity=20;" parent="44" vertex="1">
                    <mxGeometry x="-14.25" y="54" width="1020.0000000000001" height="502.99999999999994" as="geometry"/>
                </mxCell>
                <mxCell id="output" value="&lt;font style=&quot;font-size: 24px;&quot;&gt;Multi-Label Predictions&lt;br&gt;60 IaC Security Violations&lt;/font&gt;" style="rounded=1;whiteSpace=wrap;html=1;fontSize=11;fontWeight=bold;align=center;" parent="44" vertex="1">
                    <mxGeometry x="410.000972053463" y="201.9396402877698" width="210.6925880923451" height="180.93525179856113" as="geometry"/>
                </mxCell>
                <mxCell id="loss" value="&lt;font style=&quot;font-size: 24px;&quot;&gt;Smart Focal Loss&lt;br&gt;&lt;br&gt;α = 0.25, γ = 2.0&lt;br&gt;Class imbalance handling&lt;br&gt;Focuses on hard examples&lt;/font&gt;" style="rounded=1;whiteSpace=wrap;html=1;fontSize=11;align=center;fontWeight=bold;dashed=1;" parent="44" vertex="1">
                    <mxGeometry x="14.000267314702342" y="188.65676258992804" width="234.24058323207777" height="213.50359712230215" as="geometry"/>
                </mxCell>
                <mxCell id="classifier-title" value="&lt;font style=&quot;font-size: 36px;&quot;&gt;&amp;nbsp;Classification Head&lt;/font&gt;" style="text;html=1;strokeColor=none;fillColor=none;align=left;verticalAlign=middle;whiteSpace=wrap;rounded=0;fontSize=16;fontStyle=1;fontColor=#5D4037;" parent="44" vertex="1">
                    <mxGeometry x="291" y="59.38" width="355.09" height="45.23" as="geometry"/>
                </mxCell>
                <mxCell id="53" value="" style="group" vertex="1" connectable="0" parent="44">
                    <mxGeometry x="712" y="66.51" width="263.41" height="478.49" as="geometry"/>
                </mxCell>
                <mxCell id="layer3" value="&lt;font style=&quot;font-size: 24px;&quot;&gt;Output Layer&lt;br&gt;Linear(384 → 60)&lt;br&gt;Dropout(0.1)&lt;/font&gt;" style="rounded=1;whiteSpace=wrap;html=1;fontSize=11;align=center;fontWeight=bold;" parent="53" vertex="1">
                    <mxGeometry y="369.56876844267765" width="249.26148381898756" height="108.92123155732237" as="geometry"/>
                </mxCell>
                <mxCell id="58" value="&lt;span style=&quot;font-family: monospace; font-size: 0px; text-align: start;&quot;&gt;%3CmxGraphModel%3E%3Croot%3E%3CmxCell%20id%3D%220%22%2F%3E%3CmxCell%20id%3D%221%22%20parent%3D%220%22%2F%3E%3CmxCell%20id%3D%222%22%20value%3D%22%22%20style%3D%22endArrow%3Dclassic%3Bhtml%3D1%3Brounded%3D0%3BexitX%3D1%3BexitY%3D0.5%3BexitDx%3D0%3BexitDy%3D0%3BstrokeWidth%3D3%3BentryX%3D0%3BentryY%3D0.25%3BentryDx%3D0%3BentryDy%3D0%3B%22%20edge%3D%221%22%20parent%3D%221%22%3E%3CmxGeometry%20width%3D%2250%22%20height%3D%2250%22%20relative%3D%221%22%20as%3D%22geometry%22%3E%3CmxPoint%20x%3D%22108%22%20y%3D%22149%22%20as%3D%22sourcePoint%22%2F%3E%3CmxPoint%20x%3D%22390%22%20y%3D%22149%22%20as%3D%22targetPoint%22%2F%3E%3C%2FmxGeometry%3E%3C%2FmxCell%3E%3C%2Froot%3E%3C%2FmxGraphModel%3E&lt;/span&gt;" style="endArrow=classic;html=1;rounded=0;exitX=0;exitY=0.5;exitDx=0;exitDy=0;strokeWidth=3;dashed=1;" edge="1" parent="44" source="output" target="loss">
                    <mxGeometry width="50" height="50" relative="1" as="geometry">
                        <mxPoint x="295" y="413" as="sourcePoint"/>
                        <mxPoint x="577" y="413" as="targetPoint"/>
                    </mxGeometry>
                </mxCell>
                <mxCell id="59" value="&lt;span style=&quot;font-family: monospace; font-size: 0px; text-align: start;&quot;&gt;%3CmxGraphModel%3E%3Croot%3E%3CmxCell%20id%3D%220%22%2F%3E%3CmxCell%20id%3D%221%22%20parent%3D%220%22%2F%3E%3CmxCell%20id%3D%222%22%20value%3D%22%22%20style%3D%22endArrow%3Dclassic%3Bhtml%3D1%3Brounded%3D0%3BexitX%3D1%3BexitY%3D0.5%3BexitDx%3D0%3BexitDy%3D0%3BstrokeWidth%3D3%3BentryX%3D0%3BentryY%3D0.25%3BentryDx%3D0%3BentryDy%3D0%3B%22%20edge%3D%221%22%20parent%3D%221%22%3E%3CmxGeometry%20width%3D%2250%22%20height%3D%2250%22%20relative%3D%221%22%20as%3D%22geometry%22%3E%3CmxPoint%20x%3D%22108%22%20y%3D%22149%22%20as%3D%22sourcePoint%22%2F%3E%3CmxPoint%20x%3D%22390%22%20y%3D%22149%22%20as%3D%22targetPoint%22%2F%3E%3C%2FmxGeometry%3E%3C%2FmxCell%3E%3C%2Froot%3E%3C%2FmxGraphModel%3E&lt;/span&gt;" style="endArrow=classic;html=1;rounded=0;exitX=0;exitY=0.5;exitDx=0;exitDy=0;strokeWidth=3;entryX=0.5;entryY=1;entryDx=0;entryDy=0;" edge="1" parent="44" source="layer3" target="output">
                    <mxGeometry width="50" height="50" relative="1" as="geometry">
                        <mxPoint x="711" y="459" as="sourcePoint"/>
                        <mxPoint x="549" y="461" as="targetPoint"/>
                        <Array as="points">
                            <mxPoint x="515" y="491"/>
                        </Array>
                    </mxGeometry>
                </mxCell>
                <mxCell id="16" value="&lt;font style=&quot;font-size: 24px;&quot;&gt;&lt;i&gt;Training&lt;/i&gt;&lt;/font&gt;" style="text;html=1;align=center;verticalAlign=middle;whiteSpace=wrap;rounded=1;fontSize=9;" parent="44" vertex="1">
                    <mxGeometry x="285" y="308" width="69" height="23" as="geometry"/>
                </mxCell>
                <mxCell id="72" value="&lt;font style=&quot;font-size: 24px;&quot;&gt;&lt;b&gt;4&lt;/b&gt;&lt;/font&gt;" style="ellipse;whiteSpace=wrap;html=1;aspect=fixed;fillColor=#FFB366;" vertex="1" parent="44">
                    <mxGeometry x="-39" y="42" width="80" height="80" as="geometry"/>
                </mxCell>
                <mxCell id="layer2" value="&lt;font style=&quot;font-size: 24px;&quot;&gt;Dense Layer 2&lt;br&gt;Linear(768 → 384)&lt;br&gt;ReLU + Dropout(0.2)&lt;/font&gt;" style="rounded=1;whiteSpace=wrap;html=1;fontSize=11;align=center;fontWeight=bold;" parent="44" vertex="1">
                    <mxGeometry x="707.95" y="253.00076732210985" width="257.5147849245782" height="153.27101571462876" as="geometry"/>
                </mxCell>
                <mxCell id="arrow10" value="" style="endArrow=classic;html=1;rounded=0;exitX=0.5;exitY=1;exitDx=0;exitDy=0;entryX=0.5;entryY=0;entryDx=0;entryDy=0;strokeWidth=3;" parent="44" source="layer2" target="layer3" edge="1">
                    <mxGeometry width="50" height="50" relative="1" as="geometry">
                        <mxPoint x="799.9830606179714" y="66.50623442976095" as="sourcePoint"/>
                        <mxPoint x="799.9830606179714" y="112.7033522404349" as="targetPoint"/>
                    </mxGeometry>
                </mxCell>
                <mxCell id="arrow9" value="" style="endArrow=classic;html=1;rounded=0;exitX=0.5;exitY=1;exitDx=0;exitDy=0;entryX=0.5;entryY=0;entryDx=0;entryDy=0;strokeWidth=3;" parent="44" source="layer1" target="layer2" edge="1">
                    <mxGeometry width="50" height="50" relative="1" as="geometry">
                        <mxPoint x="799.9830606179714" y="-95.18367790759785" as="sourcePoint"/>
                        <mxPoint x="799.9830606179714" y="-48.986560096923924" as="targetPoint"/>
                    </mxGeometry>
                </mxCell>
                <mxCell id="layer1" value="&lt;font style=&quot;font-size: 24px;&quot;&gt;Dense Layer 1&lt;br&gt;Linear(768 → 768)&lt;br&gt;ReLU + Dropout(0.1)&lt;/font&gt;" style="rounded=1;whiteSpace=wrap;html=1;fontSize=11;align=center;fontWeight=bold;" parent="44" vertex="1">
                    <mxGeometry x="705" y="66.50999999999999" width="263.41" height="147.84538005923" as="geometry"/>
                </mxCell>
                <mxCell id="48" value="" style="shape=image;verticalLabelPosition=bottom;labelBackgroundColor=default;verticalAlign=top;aspect=fixed;imageAspect=0;image=https://cdn-icons-png.flaticon.com/512/11861/11861447.png;" vertex="1" parent="1">
                    <mxGeometry x="134" y="45" width="225" height="225" as="geometry"/>
                </mxCell>
                <mxCell id="57" value="" style="endArrow=classic;html=1;rounded=0;exitX=0;exitY=0.5;exitDx=0;exitDy=0;strokeWidth=3;entryX=1;entryY=0.5;entryDx=0;entryDy=0;" edge="1" parent="1" source="final-repr" target="layer1">
                    <mxGeometry width="50" height="50" relative="1" as="geometry">
                        <mxPoint x="512" y="1010" as="sourcePoint"/>
                        <mxPoint x="794" y="1010" as="targetPoint"/>
                    </mxGeometry>
                </mxCell>
                <mxCell id="61" value="&lt;span style=&quot;font-family: monospace; font-size: 0px; text-align: start;&quot;&gt;%3CmxGraphModel%3E%3Croot%3E%3CmxCell%20id%3D%220%22%2F%3E%3CmxCell%20id%3D%221%22%20parent%3D%220%22%2F%3E%3CmxCell%20id%3D%222%22%20value%3D%22%22%20style%3D%22endArrow%3Dclassic%3Bhtml%3D1%3Brounded%3D0%3BexitX%3D1%3BexitY%3D0.5%3BexitDx%3D0%3BexitDy%3D0%3BstrokeWidth%3D3%3BentryX%3D0%3BentryY%3D0.25%3BentryDx%3D0%3BentryDy%3D0%3B%22%20edge%3D%221%22%20parent%3D%221%22%3E%3CmxGeometry%20width%3D%2250%22%20height%3D%2250%22%20relative%3D%221%22%20as%3D%22geometry%22%3E%3CmxPoint%20x%3D%22108%22%20y%3D%22149%22%20as%3D%22sourcePoint%22%2F%3E%3CmxPoint%20x%3D%22390%22%20y%3D%22149%22%20as%3D%22targetPoint%22%2F%3E%3C%2FmxGeometry%3E%3C%2FmxCell%3E%3C%2Froot%3E%3C%2FmxGraphModel%3E&lt;/span&gt;" style="endArrow=classic;html=1;rounded=0;exitX=0.5;exitY=1;exitDx=0;exitDy=0;strokeWidth=3;entryX=0.25;entryY=0;entryDx=0;entryDy=0;" edge="1" parent="1" source="31" target="33">
                    <mxGeometry width="50" height="50" relative="1" as="geometry">
                        <mxPoint x="1394" y="296" as="sourcePoint"/>
                        <mxPoint x="1232" y="298" as="targetPoint"/>
                    </mxGeometry>
                </mxCell>
                <mxCell id="69" value="&lt;font style=&quot;font-size: 24px;&quot;&gt;&lt;b&gt;1&lt;/b&gt;&lt;/font&gt;" style="ellipse;whiteSpace=wrap;html=1;aspect=fixed;fillColor=#FFB366;" vertex="1" parent="1">
                    <mxGeometry x="-12" y="-107" width="80" height="80" as="geometry"/>
                </mxCell>
                <mxCell id="70" value="&lt;font style=&quot;font-size: 24px;&quot;&gt;&lt;b&gt;2&lt;/b&gt;&lt;/font&gt;" style="ellipse;whiteSpace=wrap;html=1;aspect=fixed;fillColor=#FFB366;" vertex="1" parent="1">
                    <mxGeometry x="749" y="-84" width="80" height="80" as="geometry"/>
                </mxCell>
                <mxCell id="89" value="" style="shape=image;verticalLabelPosition=bottom;labelBackgroundColor=default;verticalAlign=top;aspect=fixed;imageAspect=0;image=data:image/png,iVBORw0KGgoAAAANSUhEUgAAAWwAAAI8CAIAAABamwaEAAABWGlDQ1BJQ0MgUHJvZmlsZQAAKJFtkE8vA2EQxp+lrH8pxUVSyR4caErYCnGS6kEkPWxKg952t9U22W7f7K7gK4gz4oCTTyAaN5zcJYgv4CqRNBGaNW8X22Imk+eXyfNO5h2gJaAyZgQAlEzHSi0uSGvrGUl8RgfCCKITEVW3WVxRkmTBtzZH9R4C17txPqv/cvf6TWQvw4ftB/MDx+W//qboyuZsnfSDKqIzywGEUWJly2Gct4kHLVqKeI9z3uNTzprH53XPSipBfEvcpxfULPEjcVRr6OcbuGRs6l878O17cmZ6mTRIFUYcSciUU5jBKt3mf+903ZtAGQw7sFBEHgU4kOg9ozSQI16CCR0TiBLLmKSK8Rv/vp3fY1RzIaD1xu9ps0DlCBgK+b2RE6A3DVxkmGqpPxcVqgF7IyZ73F0B2vZd95V+IY4BtQfXfa+4bu2M5j8BV9VPM/pgEUtW8vsAAACWZVhJZk1NACoAAAAIAAUBEgADAAAAAQABAAABGgAFAAAAAQAAAEoBGwAFAAAAAQAAAFIBKAADAAAAAQACAACHaQAEAAAAAQAAAFoAAAAAAAAAkAAAAAEAAACQAAAAAQADkoYABwAAABIAAACEoAIABAAAAAEAAAFsoAMABAAAAAEAAAI8AAAAAEFTQ0lJAAAAU2NyZWVuc2hvdB3THVUAAAAJcEhZcwAAFiUAABYlAUlSJPAAAALbaVRYdFhNTDpjb20uYWRvYmUueG1wAAAAAAA8eDp4bXBtZXRhIHhtbG5zOng9ImFkb2JlOm5zOm1ldGEvIiB4OnhtcHRrPSJYTVAgQ29yZSA2LjAuMCI+CiAgIDxyZGY6UkRGIHhtbG5zOnJkZj0iaHR0cDovL3d3dy53My5vcmcvMTk5OS8wMi8yMi1yZGYtc3ludGF4LW5zIyI+CiAgICAgIDxyZGY6RGVzY3JpcHRpb24gcmRmOmFib3V0PSIiCiAgICAgICAgICAgIHhtbG5zOmV4aWY9Imh0dHA6Ly9ucy5hZG9iZS5jb20vZXhpZi8xLjAvIgogICAgICAgICAgICB4bWxuczp0aWZmPSJodHRwOi8vbnMuYWRvYmUuY29tL3RpZmYvMS4wLyI+CiAgICAgICAgIDxleGlmOlVzZXJDb21tZW50PlNjcmVlbnNob3Q8L2V4aWY6VXNlckNvbW1lbnQ+CiAgICAgICAgIDxleGlmOlBpeGVsWERpbWVuc2lvbj4zNjQ8L2V4aWY6UGl4ZWxYRGltZW5zaW9uPgogICAgICAgICA8ZXhpZjpQaXhlbFlEaW1lbnNpb24+NTcyPC9leGlmOlBpeGVsWURpbWVuc2lvbj4KICAgICAgICAgPHRpZmY6UmVzb2x1dGlvblVuaXQ+MjwvdGlmZjpSZXNvbHV0aW9uVW5pdD4KICAgICAgICAgPHRpZmY6WFJlc29sdXRpb24+MTQ0LzE8L3RpZmY6WFJlc29sdXRpb24+CiAgICAgICAgIDx0aWZmOllSZXNvbHV0aW9uPjE0NC8xPC90aWZmOllSZXNvbHV0aW9uPgogICAgICAgICA8dGlmZjpPcmllbnRhdGlvbj4xPC90aWZmOk9yaWVudGF0aW9uPgogICAgICA8L3JkZjpEZXNjcmlwdGlvbj4KICAgPC9yZGY6UkRGPgo8L3g6eG1wbWV0YT4Kj+70agAAQABJREFUeAHsnQdgHMXVxy1bvffeLVtucrdxNxgbMB2M6QECSUgoIUAgCQlfgEBIQiAQQioQSAiQYLoxxbj3bktW7733asnl+51khJBOd3t3u3u7d3OI897u7JT/zP73zZv33ricOXNmjPgIBAQCAgFrERhr7Y3iPoGAQEAgYEBAkIgYBwIBgYBNCAgSsQk+cbNAQCDgKiAQCJhA4PTp06dOnRpQnPHt4uJCYr7HjRs3dqx4A5lAzokuCRJxos4eralNTY01NbVNTU0NDQ11dXX19fWtra1tbW3t7e0nTpzo7e2FSk6ePDlAIq6urtCHu7u7p6enr6+vv79/QEBAWFhYSEhIaGhoeHh4RER4cHDIaGWJ846HgCARx+tTUy3q6uqCIAoLC3NycvLy8oqLiysrKyELmKKvrw+hw9TN5q4hnri5uXl4ePj5+cXGxiYmJk6YMGHy5Mnjx4+Ha7y9vc1lIK7rEgEXscSry36zpNJwxJEjR44fP56RkZGbm1tVVdXd3W1JBramhT4iIyOTk5NnzJgxZ86c6dOnwzK2Ziru1wwCgkQ00xWyVqS5uRm+2NX/QeJAALFRypCrdkgrcMrEiRMXLFiwZMmSKVOmBAYGypW5yMcuCAgSsQvsShUKd2zcuHHr1q2HDx+uqanRuJiJgjY6Onrq1KnnnnvuhRdeiEpFKVxEvkoiIEhESXTVyrusrGzHjh3r16+HO1CFapw7jKLi5eU1a9asSy65BEJBn2I0jTipTQQEiWizXyTVClXol19++e677x48eBAZRNI9mk8UFBQ0e/bsNWvWXHDBBahpNV9fUcExgkT0NwgQNFBzrFu37oMPPmBFVn8NkFbjiIiISy+99Nprr01NTR2wT5F2n0ilNgKCRNRG3JbyWIjds2fP66+/vnfv3s7OTluy0su9aGHnz5//3e9+l2+MU/RSbaeqpyARfXQ3y7SfffbZa6+9lpmZqUeVh+0oT5o06fbbb0dpgoWb7bmJHGREQJCIjGAqkhX0wcwF6aO0tBTLUUXK0EmmWMpiwAaVXHXVVYJKtNNpgkS00xfDa8I6y1tvvfXyyy+Xl5cPv+bcvzGEvfXWW9euXYvpvXMjoYnWCxLRRDcMqwS6D5Zdnn/++fz8fCeXPoYhM/gTqSQlJeVHP/rRqlWrhK5kEBa7HAgSsQvspgrFRP0Pf/gDdh+CPkzB1H8NKsHs9YEHHsDGxGxikUAhBASJKASsNdliY/rss89++OGHTGSsud9Z78Hl74orrrj//vuxf3VWDOzZbkEi9kR/sGwWXNCePvfcc3jHDZ4UBxYhAIMgklxzzTXCqMQi3GxPLEjEdgxtzSErK+vpp59m/uKca7e2wvfN+xcuXPjoo4/ij/PN0+KXgggIElEQXLNZ41n773//Gw1IS0uL2cQigUQEMJz/4Q9/yPINHsMSbxHJbEFAkIgt6Nl0LzOXn/70p9u3bxcCiE04GruZGc3SpUuR74QvnzF4ZD4nwmTKDKiU7GCNDRs24GO2bds2wSBSELM0DajCziD8ySefCIQtRc/S9EISsRQxW9MTVYz5CyZkGokSZGt7tH0/M5rbbrvtoYceItSAtmuq49oJElG18zBdZ0Dv379fvB5Vw52pzbx585555hlM5lUr1KkKEtMZ9bqbgGNr1167b98+wSDqgT5mDGjD2tdddx0THDXLdZ6yhCSiRl9je4oH3e9+9ztinapRnijDGAI+Pj5osm+++WbsXI1dF+esRECQiJXASb8NRxjsUFGCsHWL9LtESiUQYNOc73znOw8++KBwt5ERXkEiMoJpJCu2gPrxj39M8GThCGMEHXucQkWycuVKaJ09t+xRvgOWKUhEwU7FhOzee+8VU3EFIbY2a6xIXnzxRczSrM1A3Pc1AoJEvsZC3qPa2loWFzFplzdbkZtcCLA1H5Hi2FVLrgydNh+hYVKk6wkjhNm1YBBFwJUp0+zsbPqI3TZkys95sxGSiPx9z7i86aabxOiUH1kFckxISMB9iW8F8naWLIUkInNPV1RUoP8XDCIzrIplh/kfoeRFAEpbABaSiC3oDb8Xn7pvf/vbOTk5wy+I39pGgK1tMOSJiorSdjU1WjshicjWMfX19d/73vcEg8gGqIoZsfk58khDQ4OKZTpOUYJE5OlLNna47777MjIy5MlO5KI6AvQd6/EdHR2ql6z7AgWJyNCFhET9+c9/vnv3bhnyElnYDwF2F/zZz34mAtxa2gOCRCxFbHh6/Ltw7f/oo4+EW91waPT2mx78+OOP6U3RlRZ1nSARi+AykhiFHH4xYtgZgUaHp+jHf/zjH2+++aYO6263KovVGZugP3z48I033kicIZtyETdrDAH8feGRmTNnaqxeGq2OkESs7xhMDAgILBjEegS1emdnZ+fdd98tjH0k9o8gEYlADU+Ggz8e5cJIaTgujvIbo0Hcr/v6+hylQQq2Q5CINeAyc37yyScPHDhgzc2j30OwHPzTIyIiwsPD/f39xY4Ho0NluMLGd7jhAldYWJgSIVSJQUe8eKHtMt0LXBU6EbMQGUnAbtt33XWX7GuBt99++x133OHt7XX69Jmenh7CoOXl5aWnp8NWubl53d1dTh6UBFYNCQlBVTF37ly2p4qJiYE73N3dTp06jX0H/kqVlZVGesuGU56enn/+85/PP/98G/Jw/FsFiVjcx/j4s/NrdXW1xXeavIH3KuuL2F8bTdXc3Lx3714Wknk9NjY2Gk3jqCcR0IixvGrVqhUrVsyePXu0oGRPPfXU3//+d9lBwBae3ZGRd2TP2WEyFCRiWVeiCrnnnns+//xzy26TkJp97d955x03NzfTaTGu//LLjW+99Tae7FTGdGK9X/Xx8V258vzrr79++vTpvr6+ppuDyHbllVcqsREH/IU8Mhp5ma6VM1wVOhHLevndd9cR69Cye6SlJmafWQYhJ+b/N9xwI+/Gf/3rX5deeinyi7TsdZYqODgYI/TPPvv0j3/846JFi8wyCM2bMGFCcnKyEu3ctGkT/a5Ezo6Rp5BELOhH1mJ41ynhpgUXvPfee9OmTbOgNv2bIeTn52McxT5vrEpadK82ExMAlVBjxAq65pproEtLK8lW3nCrpXdJSQ+pvf/++2LnGqNYCUnEKCxGTiIn/+Y3v1GCQSgMfeGUKVOMlGryFI/cxIkT2ZaJedAll1wiRZAxmZ+dL7Iy9f3vfx/F0A9+8AMrGITaL1myRKHtIJqamuh9JeZKdgZdjuJd5cjEKfLgRcQGugo1dcaMGbaMfpYqXnrpJcxnWZLkW5axDiWxGsI32yzAVlSPDzkPrBBhQMGHTTBkKQsLUXTV999/P2vbtiCMXon1FIU290ERxizy6quvtqWGDnmvmM5I6tampsYrrrhSORPGRx555M4775RUFZOJWHX+4IMPnn32uZqaap58k2kNFzGCYCbFAgQfVkz5RgQI7f9wngeSzwCbQCgDJAJr8EGnyyI0xfHE1tXVsWBUU1ODgRbHRGZC+zuwyY6UOrBe+/DDD8+fP19KYrMtYgWnsLDQbDLrEjCdYYFM7DUxDD0hiQwDxPjPP/zheeUYhCKRRIwXbOFZnnz2i1y9ejWuqHh/8JwPyyAwMJC3fVJSEmvJaWlpKCMJLwo7DEtm40/KLSgoQF9DiCZMXXiqoZWRAgKEhfRxww03yFgBZoXKkUhJSclf//rXn/zkJzbi42C3C0nEfIfyMFx++eUjnwHzd0pLgTCPqBwXFyctudRUu3bteuKJJ6i8p6fX9OlpvOoxsmD9As2lyquVWIJhXMOaNFZzbIvLQ46cAtMhgMgeIfmFF1547rnnpGJkeTo669NPP5W92pZXREN3CBIx0xmI7gTOY5HPTDobLjOPQNuCjGBDHsZvZdJx7NgxFn2UsAo3XqSEsyinMS2VS/gaViCzOULMDTsp788LL7wQeURG6Une6qmfm8xyrPoNULrEnTt37tixQ9FS/Pz8eL8pUQQSx7x58zTFIDQTlYtCDELmsbGxSiA5NM+tW7cyKoaecfJjQSKmBgB6RxZQlTYM9fb21vvqrCkQ1b2mguMi6uTf//736jZL06UJEjHVPV988cXx48dNpZDjmhITGTnqpcs8BhaVlK46JvbII0qXopf8BYmM2lO8cPCYUMETXIgho/aB5RdQVaigrWBUsB84I8TyCjrgHYJERu3UzZs3q7MFhCz2EaM2w8kuAKY6eB45cmT79u1Ohq7x5goSMY4LZwm/zNLMqJfluyBeaPJhOcZgCadKr1HK3/72Nxlrrt+sBIkY7zssGnjVGL8m91mxYZKMiGKVr7QifLC2eBgcOnRo8KfTHggSMdL1zHhfffVVdV5oFN/W1qbauDfSWsc61drailOPOm1ihLzyyisqaM3UaY7VpQgSMQIdO7OqqXtn3DuGI78RKFU/RQh+NcvcsmULo0XNEjVYliARI53yv//9Tzkj95HlEfqwpaVl5HlxxgoEiouLrbjL6lsYJ+vWOXu8IkEiw8cPW3Pj8T38rJK/UazirqZkCU6Ut/pyAYb2jBkngnhEUwWJDIcEXzj1IyEL/dzwbrD2twrGgcOqhiuQQhEzhxWk2Z+CRL7RNajKCFOovqps9+7d36iH+GEVAkVFRbgLW3Wr9TcxWpjRqKaGt76iit0pSOQb0BIwwi5CAUE3xGZ63+gJq37gKmkXoxvWehUNN2MVGOrdJEjkG1ivX79+ZCCfb6RQ5geFfvbZZ8rk7Sy5YiGCkbFdWst+zMqFzrRLiywqVJDI13AxCokS/PVvFY+w1GahV8UCHbCo/qivKlmIjISPsIkD0WdHXnL4M4JEvu7irKwsewmlxLlhm5WvqyKOLEcA/1089OPj4y2/VYY7mAgTC1KGjHSYhSCRrzuNdRm7zKjZXJaoJTwDX1dFHFmFQHR0NM617PJt1d023cSElMARNmWh25sFiZztOoRhpSOYGR0kBBMhJijBzYxeFSctRQBG/vnPf65CNICRFWP8OOcajSCRs4OBpcHMzMyRI0PRM0QSefzxx8ePH69oKc6W+dq1a+2yOwyBI9RfYNZC5woSOdsLRM1U3wuOiOeXXXaZFsaBg9WBXR3UD8jOXNg5Y68KEjn7+Gzbtk3lB4ntXR9//DE2hVK5XGcojr11fvGLX6gTnWgonuqPoqGl2+tYkIgBedyo2FpBzT5g0s7OBsHBIWoW6lRlrVq1iq15VW7y0aNHsRlRuVC7FydIxNAFGIwqtFP3aB3MRtxsfD/aVXHedgQQQx566CEi6duelfQc2OhPuf33pFdD5ZSCRAyAE8RM5cXdu+++29fXV+XOdrbipk+fjjyiZqsZRXZxm1CzjSPLEiRiwETljmcH3IsuumhkZ4gz8iKAMHLXXXe5uqq64fTBgwflbYX2cxMkMgYLETUXdxnZN998s8q74Wp/ICpUQ/YtX7RokUKZG82WWASqxWc0WgH1TwoSGUOcZDWt3bGnvPjii9XvaecsEcq+7rrr1FwCYyw5W7BLQSJjWJdhk3rVnrGlS5eyAKlacaKgZcuWqQk4Y0nllT67d7EgEQOJqNkNl156qZrFibLYnXfx4sVq4qDyiFKzaUbLEiQyRs34piEhIQsWLDDaE+KkcgioPH90tlVeQSJj1IwPPm3aNOFrpxxZjJbzrFkz1YQds6PRauKQ552dRAgFVFdXr1rXIoag6lOtOFHQAAIBAYGTJk1SDY2mpianCjHl7CRSV1fX0aFSvH8MFtLS0lQbyqKgQQRYnVETedb7VDaAHmypXQ6cnUSwU1bN2cHT0xMzM7t0syiUiaRqIDCieDmpVpzdC3J2EqmpqVEtNCbLBJGRkXbvcuesAJEBVDPwIzQR48p5cHZ2EqmqqlKts+Pi4lQrSxQ0DAEiJ7q5uQ87qdzPyspK5TLXWs7OTiJqvjEYx1rrfuepT0REhLu7m2rtdaoQZ85OIijSVRtYoaGhqpUlChqGALrVgICAYSeV+ykUq8phq7mcUayqVic1TRVUa5SOClKTRNTfztmOHeHskkhbW5tq6Ht5ealWlihoJAJqbsrR3q6S3cDIZqp/xtlJhCV91UAntrtqZYmCRiKgJv5qjquRLVX5jLOTiGpGIvQr28er3LuiuKEIqLaWT6FE7R1atGMfOzuJqBkV0dli1WjtyVEz4INdtoW3F+DOTiJqPthqlmWv8aTlctUkEfX3MLIj8s5OImoOLKd6O9lxTI9WtJoPtppTp9Haq9p5ZycRNTtbzZUg1QaQjgpSU9mp5riyexc4O4moufOzUynb7D6yR1ZAzdCnThXwwdlJRM0Qvi0tLSNHtjijDgIYbqipk1J5nwp1MBytFGcnETU726msGEcbcPY6j3+DmvovNceVvSAdLNfZSURNScSpYkwMjjCNHODfoKYkoua4sjvCzk4iapqio9hTU7dn97GlqQqoLIkQgEpTzVe0Ms5OImpuiMsSb0VFhaLdKTIfDYGSkhI1V0zUHFejNVm184JE1NtVGzsFpwozodogllKQyts4CBKR0ikOkkZN93zehM62mYBGRgleS0gialZGzXGlZruMluXskghxT43iotBJdntWKGeRrQkEUEWpTCIqjysTbVfhkrOTSFRUlAooDxaRm5urpvH1YLlOfsDiuspLY04VClOQiKokUlpaKkzO1Ge0I0eOqKlVpYEqv5zUh3Roic5OIsTvHQqH0sdYvjvbbs9KQyol/3379klJJmMaQSIygqn1rGJiYlS2C9q2bZvWQXGs+mFjtnfvXjXbhLmqmM6oCbidywoJCfH29lazEgcOHFBZtFazdRosKz8/X82NQUCAERUcHKxBKBSqkrNPZ8LCwlRWpLNMINZoFBrNRrPdvHmzmkEwqQMjSuVpstGGq3bS2UkEoyB4RDW4KQi71e3bt6tZojOXhdAHiaiMACNKTXcKlVs3sjhnJxEQSUlJGYmLomc+/vhjtmtVtAiR+QACxcXFR48eVRkNZ9u2XZDImKlTp6o8yLBbFWs06mD+v//9T32+TktLU6d1GilFkMiYKVOmqNwZyNivvfaayoU6YXGY5GzYsEH9hqs/otRv49ASBYkYSETNbY0G0N+yZYvKLmFDe91Jjj/9dEN5ebnKjWWfvdTUVJULtW9xgkTG+Pj4JCcnq9wNBG3+z3/+o3KhTlUc4t4rr7yq/oZhjCWVjQbs3q2CRMZgbDZz5kz1e+Ktt96qqqpSv1wnKRFtCBYi6jd22rRpKpsvqt/GYSUKEjEAMnv27GG4qPATE/jnnntOhYKcsIjW1ta///3vdmn4OeecY5dy7VioIBED+KjT7RLPjrXenTt32rH7HbXol156yS4qJ8xDkEQcFdXR2iVIxIAMpiLh4eGjYaTceQzPnnrqKREcQF6EWUF/44035M1TYm4YqqpvdiSxbsolEyRiwBaNur2k0KysrN/+9rfq6/+UG1L2zZn9ZR566CE196ka2t558+apv9I3tAJ2ORYkchb2pUuX2qUDKPTNN98Urr2ygA8XP//883Y05Fu2bJksDdFXJoJEzvbXwoUL7bUyh4aVl6fK8fv0NUwl1va99957/fXX7SXWYSuwaNEiiVV1pGSCRM72ZmhoqPr274MjieB9d999d0NDw+AZcWApAqioH3vsMTV3qBpWQ9TzThUBYLD5gkTOQsHO3hdddNEgLuofEB/gvvvuY21S/aIdoMT09PT7778fEz47tuXiiy9Wc394O7Z0WNGCRL4GZPny5faa0QxUgnfpd7/7XRGE9esukXaEEuQ73/muyqGYh1WNkcP4GXbSSX4KEvm6o1mcmzhx4te/7XFENNDvf//7Yo8r6djDvN/5zndqa2uk36JEykmTJiUmJiqRs/bzFCTydR+5uLhcddVVX/+209GePXuuv/76zMxMO5Wvm2Lx8X/nnXe+973v2VcGGcDriiuu0A1wcldUkMg3ED3//PO1sAFiUVHRTTfdxFrDNyonfgxB4MSJE7/85S9/9rOf2cskZEhdxrDf3YUXXjj0jFMdCxL5RnfHxsay1vuNU3b60dzc/MADDzz44INaeM3aCYNRi2XSd9lll/373/+241rM0MotXrw4MjJy6BmnOhYk8o3uZkazZs0ajejYsXdYt24d9Vm/fj2O7d+oqLP+YP3lySefvO2229hLUCMY4LNLHzFyNFIf9avhYi/LHPWbKrFEPFnOO++8iooKielVSAapYcV07733YpvvtIMVk7x33333T3/6k8r7P5jtX/SpX375pRNauw8iIySRQSjOHri7u1999dXDz9r1N2IIaxC33nrrnXfeyY6Q6gcNtWvrx0AfSGTovFGCaI1BQGbt2rXOzCAgICQRIw8IFuhMua2zXPLx8Z09exarxewbgFBD2CFC46AolcuKjPHKDJzlG8Qlu4QvMIKXYqcIbvj+++/DIOxhrFghNmUcFBREPIe4uDibctH5zYJEjHQgU7wf/ehHH3zwgZFrJk8lJSURCwcGGapVQfnHrvQ7duxAGj906JAsjv/Mw9EBX3LJJVdeeSXiNF7IJuuls4solffv309oMr6to3LVGnzttdc+88wzqhWnzYIEiRjvFzz0EUZOnjxp/PIoZ3mq//znP49ycQzcdPjw4RdffJHNq+SakrDt6+TJk3EeXbFixfTp05mLjVa69s9XV1djI4ND8+7du3WxJgXa6LydLSzzyIEkSGQkJmfPfOtb37J0qzrsBd5++23Tsa0QTL744ovHH39CXiNL2ATvL+JZzJ8/f+7cuWxUHhgYqHEtLMqO+vr67Oxslmz5MIvUgtHHqANixIWVK1e+8sorI0473QlBIqN2ORMQlhItFUaYXDCjMft2Ymc23P/Z3HvU4m24wGSHQG0JCQlY8eOaTJUwyoZTbMhSnls7OjqIWoiGiAVaPrAG0ofKG+XK05L+QFYYqtgrlpVcrZAlH0Eio8LIjIMFEahk1BSjXEAi+PWvf40J41DNyMi0PDw//OEPWR1U1AaEORScgpwCiSCe8IFWcDZRbeKDXpl1WTSj6JjxLYSU+WhcRBrZWSPPYNz88ssvm+7ikXc55BmxxDtqt/LsYZphxXBvamqCHbDINr0iQ1DfP/zhDxdccMGoNZDjAvWHpNDmomVgeXjTpk1of1VjEFrAPiwhISE42uJViK061GwFpHIgIWcecAdjQzDIAKaCREyNLYRV6/y7eWhRjkAQCBomCsBP549//KNq4bCQR5544onVq1ebqJLsl+DiX/ziF5dffrnsOdsxQ3p21qxZdqyApooWJGKmO1jrRWQwk2iUy1hGEa+MbXdNmAWzOssaYXx8/Ch5yHkaT9NrrrlGzhyl5cUb+5e//D/1txmUVjuLU0H9hI+y+DbHvWEcEeUct3UytCwqKgqTJ8KOWZcX83+MTZlQLFiwYDQx3t/fn/2AsVmSa93XaFWjo6P/9re/env7GL2q9EkvL2+Iku21FVUAKd2KgfxvuOEGzEPUKUsXpQhJxHw33XPPPazdmk83Sgp4BM3iq6+a2heWeRNDczSWGSVjy07TiuDgEMvukTU1JrbY2sqapR0yw0QVJO1QsIaLFCRivnMwar7jjjts0aLBI2wug3nIaIVBH8yblJvUsMqL7dxopatznjaijNS1mwn6HRjELvucqdNH1pUiSEQSbqyJ2hg5kYUJ9IuYSIxWHq84HMyUMGBHI4OvOpOm0YpW7fyMGTNMW+KpVhPrCqLyN998s3X3OvBdgkQkdS7TmZ/85CesbkhKPUoiFlnhERO+M5iuY5ki+6QGPz2NBO9DDKEmsjdwFLxlPs26+KOPPurwTo9WoCZIRCpo5557Lu9zE+ssUjLCK+Q///nPaCl5uh5++GHZA+1hXYb16miFqnyefTmUkLaUbgVdg9IKfwKlC9Jj/oJEpPYaOhEM1bH4lHqDsXRwEB56JiIe8a7+3e9+t2TJEmN3W3lONTsUKfVjtWv8+PFSUmoqDUololXqVIZSGklBIhYgTIgQ1BY2qgaZ1LBYY6LUgICAf/zjHzh32aLKHcyfcW/HbYYHqzH0ABfBoT+1f4zohJGeFpyPtImVIBHL+mXVqlUsc9g4qSFSSVlZmYmC2QkJoiGOme08gjbHRunJRD2tu0TIAututNddWIXIKxvaqyEKlStIxDJgWeR7/PHHCTtk2W3fTI3r3UsvvfTNc8N/YSb705/+FD9RHHCHX5P8G7KbMGECApTkO9RICHrAqEZJcpTBDrs///nPbWdzOeqi0TyEF681HUPsHCxHbAl+IT2sXnt7OyHR/vnPfyK8SDT3ZArDUsKcOXOIS4roRFnWNFKxe1AJsW2tae9ExQq3LGPWxd944w1Wpi27zclSCxKxssP/8pe/YD9my7yGDagxMJNYPBbxmM9jNo4nbkVFZWdnx7AbIQ4m7REREVjQowRB/NasTRQBASCRysrKYU3Q2k8gffrpX99ww41aq5jW6iNIxMoe4anGAm3z5s1W3j9mDIawRE6zVE5mKkTEVj549CAKYXXCxAddLLlBIggd2l9Axe4OT2KiE1kNnQo3wiCEcWeljAMVitN1EYJErO++hoYGbAfy8vKszgLNyKWXXmr17Tq9kUkZkghREbVcfzz9UUjZ4jOl5dbJWzehWLUez9DQ0BdeeAEpwOosCCaCysPq23V6o6XCl/rNZFZIzwoGkYi8IBGJQBlPhgLiN7/5jdWm0Egx//rXv4xn7dBnbbS1URQbwoUQcU47Nr6KNlaWzAWJ2AojkjmWrNatWaKXZUaTnp5uayX0dr/EZSb1mwW7sYTvACEL1IROkIgMaN9+++1WRwNBOQoHoV6RoR76yYLYCBqsLG+C73//+3hIabBuWq6SIBEZeodJPubwVnvK5uTk3HXXXU6lHLHRH1qGPhuRBaswuPk/+OCDYjlmBDZmTggSMQOQxMsYdz355JNWi8HsF4nZCJs5SSxO78m09qBSH5bJHnnkEa1VTBcdLUhEtm5CmY8FmnXeZShHNm7ceMstt5hw8JWtovbOiMZqbTpD+IVnn33WagW5vRG1c/mCROTsAJZ7UZTOnj3bOktWNsS7/vrrsUy17nY5W+I0eSF6sA0VAfe1b6Sn2T4RJCJz12BsjiM/XlvW5Ysd6re//W0iaLHdhHU5aP8uKFI7swbCR8P7Wogdqf2OG62GgkRGQ8b68xihsc8zAdytEyiwZMdWkik6FihQiXWZWF97Ve7UwhIvRMbyPEZlVu8rpApUOihEmL0r1UmstvzgBz+wYivfoRXCHQZvOpxx582b5zBvSxgE3xnWpIa2VOVjFtSuvvrqp59+Ws0dRVVuo2rFCRJREOq2tjZ25P3kk09slCawX4BB8OYgxicBUwnV5+PjgxaQB4C1Ut6o5N/X14cIg28bSzzV1dUlJSU4p/DhcWV+pGAjLc8a30VEADuSCHhi2oN5jtCDWN57Ru6wKXy5kfzEqSEI8ORjQM3shumJLbvbcW9zczMewwNOw1hVkjOLQcjhkAgvVd7tkAj0gelaR0cHVDJYC+tWiwZvd7wDiIPVdIzKtKOX0TvIgkSU7UGEBezQCFD4+9//fuizbUup8MVANAApmdgoBEkpwoo09qoV00OmMEhngkGs6LXRbhGK1dGQke08ksL3vvc9FHiMYNkylZyRLRKQ5EIsS2gvrSobDBIgjpmUYBDLOsxcakEi5hCS6Tpvv//+97+2BEy1riL2eudbV1uF7oI10E+/9957mPAoVIQzZytIRL3eh0EI2IlhgnpFjhmjQRKhSmrWCrURquW///3vWgtYreYwULQsQSKKwjs8c8bxq6++ii0Zm0IMv6bMbzUfV+ktUG1Cge0ftmSopVQDXDoIDpNSkIjaXYmKhOCsWKMlJyerULa9FBCmm6ZCreCpBQsWvP3222zcaboy4qqNCAgSsRFAK29na8uPPvqI0BVKO8Wr8LhaCkH/bOaMpXdZlJ7oZPfdd9+bb76pxy07LWqpFhILErFbL2Dogd8XW/NGRkYqVwlnIxEEkGnTprFrOsYg1oWbU64vHDVnQSL27FlGOU7o69evv/HGGxUKO6pBnYhykgg2eA8//PC6detmzpxpz351srIFidi/w9G2PvXUUy+//PLEiRNl1zhqUBJRAnFmhStWrGCrQGLECYc6JRA2kaewWDUBjnqX0Laee+65WDEQ/J1IAuwRJ1fZGiQR2YUjVNSENcQSR8xf5Bo2FuUjJBGL4FI2MdL4Pffcw+zm8ssvl8s3TIMkAohy1SokJIT5y8cff0zkBMEgyo7O0XMXksjo2NjpChtivvjii/v27UPnunXrVhtrIftr38b6cLssDALJElcZKzLgsr1KIgdbEBAkYgt6Ct5LTCM+hEp8/vnn2cTb6qCkGiQRGxWrrGpdcskld999N74wCnaAyFoyAoJEJENlj4RLlizBl3/37t2YXR48eNCKd7gGScRqIH18fK+5Zg0CCBpoqzMRN8qOgCAR2SGVOUOCCaBzXb58+d69e7Fz3bVrl0U7SxC+SOYK2ZwdMxFL46ozZ0FPdNttt2HGbnP5IgOZERAkIjOgCmXH0u/ChQuZ4OTm5r711ltYuxKmyGxZ3DVjxgyzyVROAC3ii0hDzJbLwi27Hd944w2rV19sl0AKZmsoEoCACI+oy2HAGvCHH37IqoRpdUlsbCzb2WjQ94xqX3fddSaiNCFxsJPD2rVr58yZo8secqZKCxLRcW8TVJUoqiwJb9iwoba2lohnQxsTERH5xz++gBPa0JPaOSY+ENHeCOY4WCXkJjbuwViGDUmXLVsaHBwyeEkcaBkBQSJa7h2pdeOVzkacCCYFBQVoTHgUCel80003RUdHS83CHumysrKYl+Xn5xN+LSgoiMkawVYiIiLsURdRpvUICBKxHjsN3snTyAdVAiawGqyeqJJDIiBIxCG7VTRKIKAeAuJ9pR7WoiSBgEMiIEjEIbtVNEogoB4CgkTUw1qUJBBwSAQEiThkt4pGCQTUQ0CQiHpYi5IEAg6JgCARh+xW0SiBgHoICBJRD2tRkkDAIREQJOKQ3SoaJRBQDwFBIuphLUoSCDgkAoJEHLJbRaMEAuohIEhEPaxFSQIBh0RAkIhDdqtolEBAPQQEiaiHtShJIOCQCAgScchuFY0SCKiHgCAR9bAWJQkEHBIBQSIO2a2iUQIB9RAQJKIe1qIkgYBDIiBIxCG7VTRKIKAeAoJE1MNalCQQcEgEBIk4ZLeKRgkE1ENAkIh6WIuSBAIOiYAgEYfsVtEogYB6CAgSUQ9rUZJAwCERECTikN0qGiUQUA8BQSLqYS1KEgg4JAKCRByyW0WjBALqISBIRD2sRUkCAYdEQJCIQ3araJRAQD0EBImoh7UoSSDgkAgIEnHIbhWNEgioh4AgEfWwFiUJBBwSAUEiDtmtolECAfUQcFWvKFGS8gh0dXW1tbW1tLS0trZywHd7ezsnB87wzUnOdHR0nOj/dHd39/b2ctjX13fy5MlTp04N1JE0Z86c4djd3d3T05MDFxcXNze3cePGcWbgJOcHPr6+vgEBAf7+/nwPHPj4+Az8DAwM9PPzCwzkdCD3Kg+AKMEOCLgMjBU7lCyKtAqBnp6erq7Orq5uqKGzs7O0tLSqqqq8vLyiooKDxsbGAVLgG14YYAq+T58+bVVp1tzk6uoKuXh4eEA6fPdzjruXlxdEEh8fHxkZGRMTk5yczAFE4+3tzSW+SWZNYeIeDSAgSEQDnWCyCrBGQUFBTk5OSUlJWVlZdXV1bf+nqakJytDvOwCKCQ4ODuv/REdHwy98Jk6cOGHChNjYWAQfk6iIixpCQJCIhjoDkaGmpgaaKC4uysnJhThyc3M5w3nEioGPflnDNNDIL9AK8gizHmZASUlJsMnUqVMTExPhFIQX2EZMiExjaK+rgkTshfwYphiwA4IGIsbevXszMjJgjYaGBkSM+vp65iN2q5mWCkbhgsASGhoKj6Slpc2dO3fWrFlBQUFMlPgIgUULfSVIRO1eQKkJXxw/fjw7Ozs9PT0/Px91hpo6C7UbLHd5cAfiSWpq6owZMyAUpBVkFsEmcsNsQX6CRCwAy7qkiBuoPPnAHVu3boU4kDWgEjSjjjo3sQ4oS+9iBsTEB6VseHj4/PnzlyxZgqiCegWxRXCKpWDakl6QiC3ombm3sLDwk08+2bFjB/OUysrK5uZmMzeIyzYgMHbsWBgkISEBweSyyy5bsWIFC8w25CdulYqAIBGpSElJh+6TScqRI0e2bdu2c+dOSETMU6TgpkQalCnTpk2DSs7p/0RERChRisgTBASJ2DoMmJI0NzdVVFQyVfnwww+LiopQi4qpiq2wynQ/4glaWBgEBcqVV145b948JjtMgmTKXmRjQECQiPXjAClj165dn376KUIHilIxW7EeSrXujIuLmzlz5sqVKy+//HK0s2oV6+DlCBKxuIMhi4MHD27evHn9+vWYimI2isG4xbmIG+yEADpXrFEwlmWys3bt2sWLF0+aNEnYy9rSG4JEpKKHQQeU8dZbb23cuBFFKSss2tR38JBglOUyduzZA5ex/HbvN+Ryc/dwxw6dNVJPT1dX93HYd7m7jXN1x8zL1XXc2HFuCP/AgbEoZ1zGGGxGaeMgRZ46fdLww+Bk09vX23eq/wjTenxvek/08NeHrX1vLy44p8+cOn36zJnTfJ8+feoMP8f0e+JIxVqtdHAHlmys6dx2220s7jDxEfZsVmAvSMQ8aNiMouxgnWX79u24tJm/QcUUuJ3w5+nl49n/7e3r4+Xj6+Xj4+Xt4+GNH5yvpzfH3vCFOpWCOeCXrs6O7s7Onu7OLjz98PJhPbujg5/dXZ387Onubm9th53UqZKUUmBPZjcXX3wxehNkE3x/pNwl0gwgIEhk1JGAJ+vRo0ffeecd6KOuro5pi73MOhjiXt6+7p68OD2RI/CQDQgO4S8oNNzXzx+pAY7gM26cKwfaNJE4jYPwqVOIMfxv+KevF/fB1ob61qam1mb+Gnt7enp7e2CY3hPdo3aJwhfAGetYXHhuvfXWCy+8MCUlRQgmUiAXJGIEJczD3n//fWYu6E2ZttiFO8aOdQ0ODQkOjwwMCQ0MDfUPCPLx88ep3sPTa2DSYaTe+jwFvPBLZ3tbR1tbR2tLO6RSX9dcX9fS2NDW2mKXNsHIMMh555137733ojHRJi/bBRmjhQoS+QYsmZmZ77777quvvoq/rJrc4e7u4R8U6BcQ5B8UEhoRGREbHxoZieriG5Vzsh/gT2SUuqryhpqqhtqafn5p4Yya/UKYAqxM7rzzztWrVxPKwMl6QGpzBYkYkBpwt3/99dcRQPBkQRKRip+16dw9iKLh6eXlExweER4dGxmf4IMFt48fKk/x3hsJKjOg7n7dSntzU111ZW1FeXNjHb3W1d6ptG6F7sDyFXnk5ptvvvrqqzGxdzBJcCTalp4RJDIGG9Nf//rXX375JQpUS+GzND26zpDwiIiY+IjYuLCoGI7FiLQUw4H0hGaqr62uqyhvqK2ur66sr6keXEWyLkOzd9FTrONcf/31t99+O1RiNr3zJHBeEmEejgP+n/70J+hDufVa3mP+vMiCQ8OjYxImTAqPiWNVlaVVzvNxnnGmUEuZ2hgWkU/2dba1lxcXlBXkGjQpLa2dHW0KlYhym6AEd999N+ZqOOkoVIq+snVGEoE+cKiFPj777DMiADEKZe8zwxqKj290YnJccgoTFtQc7h5iniI7zMMzpCs7UMY2NlSWFJYXFjTU1p7o6WYtaHg6m39jakMQNkSSW275VlBQsJO/D5yORHCK+8tf/oL6g/A/No+l4Rmg6AiPjIqMiU+YmBqdkIyCY3gK8VstBBBSOtrbinIyK4uLaspLmxrqldDIYkR/11133XLLLdCKWi3TXDlORCKoPOCOV155hUhiuNvK2BWEMvcPCopNnjAxbaZfQCBUIjQdMsJrS1YQB0pZjN/qq6sKszIqS4uZ7MhoioIMggU9sZF+/OMf4zHMao4ttdXpvc5CIh999NEzzzyze/dueScvkTFxSamT4yekRsbEMmHR6SBwnmq3NDZWl5cU5WSV5ufJqzfBORiDV8aYE+pcHZ9EMP345S9/uWHDBvZYkeVp4eUTHhUVnTA+dcasmIQkIXTIgqrKmRDbtig7M/fY4bqaylb5gkURFQn7NOxKcMNRuUV2LM6RSQQ/l3/84x8vv/wycUzlEEBcfAP8I6NjU6fPQmPKtEXYRNtx4NpeNDMd3AWxji3OzcrLONLa0opfj+3ZEgwJ+7THH3+c2CVO4hzssCSSlZX1yCOPEOxDlrDpwaFhyZOmTJg2Iyo+UXCH7U+a1nLAM7A0Pzf/+LGi/NxeOSRWtua64447fvGLXziDL58DkgjTlj//+c8vvPACYU1tFEBQkaLsmDxzbsqUNA8vz7FjxUaQWnv8ZauPQQV76lRzQ33W4f3FudkNdbWYoNiSO+s1ixYteuKJJ3ALduw1YEcjkeLiYiRJ/F8Ip27LCMCVHvqYsXBpTGKSt4+vLVmJe/WFAGwCleSmH805dgiTExsNYdkw9IEHHvjud7/rwFMbxyER+p5oY/fffz+GZLaMWqJvJKVOnX7OopiERKE0tQVJvd9LsKXMQ/ty04+UFxfZ0hZ8gpnaoN2PioqyJR/N3usgJMJm9//85z+ffvppgiRbPYXxDwiMTU6BPli4NYT2Embpmh22alWMNxM2JiW52cf27sI9p7fXSs9MxJDZs2c/++yzCxcudLxx5QgkgtMt62r/+9//rA47RvCO8amTZi1ZHps0XuhN1XpC9VROZ3t7QXbG4Z1bMaW3rt5wB8HTMCRZs2aNdTlo9i7dkwhm7Ngd40RnnQBClNGYhIQF518Um5gsJi+aHaYaqRgTnPT9ezIO7CG+iXVVwn7kvvvuY92QoLfW5aDBu/RNIvv27XvwwQf5tkL7BWWERUbNXrw8efJUoTrV4NDUZpXwGW5pajq4fXNJTlarVYHXCG6ENdpPf/pThzFI0zGJsNHcNddcw3IME1dLBxyhjKfMmjtv2fm+/v6ON0e1FA2R3lIEEHvLCgsObN1YWphvxfBDRUKII1QkjrHRp15JBDN2xMKCggJLux+NaXxyypILLw2NjBLqD0vRE+kHEYA7iDd9/ODeo3t3WTG7wYqEkIuvvPJycHDIYJ46PdAfidB5LOWiB8nLy7MU9IDAoLT5C2ecsxhJRAgglqIn0o9EAJEEBtn9xYaS/FxC2I9MYOIME+qbbroJVave9wnWH4mwZ+UNN9xAJFQT3TPyEps5xSePP/fSq9GDCPoYiY84YwsCiCRoWw/t2NbcZFmQGnjkqquuIjA48QRsqYB979UZiRDQEKVUenq6Rah5+/qmzVkwZ9m5Pr5iJ2eLkBOJpSKAwrWhpnbLx+9WlZVYpOYnBMmAfkS/24yPe+yxx6TiZO90RBW65ZZbjx49YlFFgoJDll985cyFSzw9nTFgjEVYicRWI+DiMpZ4/Ympk0/29tZUVkjfNhTGIVoFKhJcbHRqZKAbEsEU9cYbb9yzZ7dFyvCkiZNWX/+t+PETdNo9Vo9pcaNdECC2bsKE1MDg4PrKCkKWSKwDjn+HDx8ecNiTeIumkhk2cNb+B5vU3/72t2hDpFuUsQozZebsC9ZcT6B17TdQ1NBhEGDJb8qseedfeU1EdKz0RmFs/dxzzzHCpd+inZT60IkQWOjhhx9ulhyBCpenWQuXLlq1mjeDdrAWNXEqBPC1+WLdf6rKyyW2Gn0/YZ/ZPi0hIUHiLRpJpgMSQY16/vnnNzY2SpzIQBxLLrh4+vxFbu7uGkFZVMMJEWC4sq3w5g/WFeVlSxy6TLrZZA9XUsKj6QgxrU9nmpoaH330UbZ3kNgNLMScc96qmQuXCgbR0Sh0yKoiWQQGh6y44prxk6ZIbCCz9U2bNrGTvMT0GkmmdRL529/+/vnnn0sECxnknHNXzV9+vjBFlYiYSKY0AoEhIauvuzkhRepeeczZWTAtLS1VumIy5q9pEjl48OBf//pXidtrwyALV1w4Y4Fe18lk7FSRlaYQ8PTyXnX1dSwUSqxVVVUVwVltDM0nsSxZkmmXRAiw/OKLLwKolHYiOuJQN2fpuY7kYS2l4SKNLhAICglbfvEVYRGREmtLgPEdO3ZITGz3ZNolEZa73nnnHYnGf1NnzV160aViFmP38SQqMBoCYVHRF669EdPH0RIMPc8ywq9+9av29vahJzV7rFESYdn897//vcTtpqLi4hZfeAlCo2ZRFhUTCIBAZGz8vHNXEgNcChrseUKwPikp7Z5GoySCLEeoISno+PgHLL7gMraSkpJYpBEI2BEBw6R79tzJM2dLqQPvUdZ6dSGMaJRE0KdKMS3DqGzu4mWJKRPoHikdI9IIBOyLgJubOzaQMfGJUqqxf//+bdu2SUlp3zRaJJGjR48ihkgxDGEr3Cmz5+Pmb18QRekCAekIMO+eu2yFlIicfX192GpLnNRLr4DsKTX3+GFv88Ybb7S0tJhtqqurG6oQ4huaTSkSCAS0gwBSc8rUtJQp06RU6cCBA/jmSUlpxzSaIxG8dbds2SJlUSZ1+sxoaWKhHfEVRQsERiKAefusxcuCQkNHXhp2hvAX2LAOO6m1n5ojkdzc3JycHLMwEehw6txzhCrELFAigTYRCAmPlGIOj2D+8ccfa7MJg7XSHImwrNXV1TVYv9EO4lMmxCWNH+2qOC8Q0DgC2DTNXc5yr3m7hPz8fLSEWm6OtkgEC3cpM0AWZSbNnCfiDGl5YIm6mUXAzz8gcUKq2WQ9PT27du0ym8yOCbRFIpAuk0CzcETFxYdHRZtNJhIIBDSOwIRpMz3MGUni/8FaLys1mm2LtkiEYJNNTU3mwHKJT5koRQ40l4+4LhCwMwIxScnEUjRdCWwdpD0XprNR8Kq2SKSoqKitrc10c9093GMSxwvbENMoiau6QIDtB9Cwmq1qdXW12efCbCbKJdAWibAflVkbM29vH7Gyq9yAEDmriQDLiwkpE82WiN2DBAndbDZKJdAWiUjZFjMwJFRELVNqOIh8VUcgPDrWrFiNQkTKo6F63c8WqC0Sqa2tNQtEYGiY2TQigUBALwh4eHkFSHAfLZcc8Fn9hmuLRKQ43QUGm7fzUx9HUaJAwDoECKPlLWFjRmY01uWvwl3aIhEp2iN3T7ELhAoDQxShFgLoRcaa90HXctRVbZGIlMVwd3dPtbpXlCMQUB6BM2POnD5tthgpLqlmM1EogbZIxOzSDChIIRqFwBLZCgRkRwDvGLbRlD1bNTPUFolIafmJE1K3OJWSm0gjELAvArw4T506abYOWo4frD8S6enUR/Ras8NCJBAIgMCZM6f7envNQoG/mNk09kqgPxJpqq+zF1iiXIGA7AjAIJ0dHWaz9fTUripQfyTSXF8nRXVitldEAoGAFhBoa246KcG5zsvLSwu1NVoH/ZFIR3tbS1Oj0caIkwIB3SFQmp8rpc7uGt6dXn8kgvhXXpgvhBEpI0+k0TgCvSdO1FToadtdo3jqj0QIv1pRVHjqpHmFttEGi5MCAe0gUF9d1dbSrJ36WFcT/ZEI7awoKWhtMRt2xDpAxF0CAfUQKMw63tosSEQ9wL8uCdyLc7LFjOZrRMSRDhFAn1qQlaHDig+vsi4lERqRe+xQZ4cwGBneneK3XhDgFZh15GBjvXm3de23SK8kUl9TnXfsiPbxFTUUCBhFoKOt9fghSbtNG71dUyf1SiJ40Bzbv/tkn3lTP03BLSojEAABxJDCrIzqsnLHQEOvJAL6DbU1ezZ9IZZpHGMgOlUrGutqD+7cevq0g6ww6phEGHY5Rw9Vlet+md2pnh/RWITog9s3tTQ6jsGkvkmkpblp76bPerq7xdAUCOgFASYy2UcPO9Laor5JhHFTVliw64tPxKRGL4+Qk9ezsqR498ZPpexXryOgdE8ixHTJPHIoPzOdAx3hLqrqbAggenR3du7e+Emjw7mh655EGIsnurt2fLa+rDDf2calaK+OEMBNZsv6D0oLC3RUZ4lVdQQSoan49W79+H08ERxpqimxC0Uy7SMAg+zfujE73aFUIYOwOwiJ0J762uov3/9fa3OT4JHB3hUHWkCAAXl457Yje3eddlCvUcchEYZLRWnxhrf/zSK8FoaOqINAAAQMC7o7tuzcuOGE464hOhSJ0GdVZSWf/vcNQigKeUQ8w3ZHgNg3mITs27LRsUejo5EIvVVTWb7hv/+urXQQm2K7PwmiAtYhgNnBri827Nu6qbury7oc9HKXo5HIAO7V5WXr33w959hhse6rl4HoYPUk1NAX7//34M5tUiK5673t2o1DbyOyzY0NWz75gE1qpsya6+bmbmNu4naBgEQEkIWb6+s3f/QOq7lsByHxLl0nc1gSoVc6Wlu3fPx+bVnpktWXefv46rqfROV1gQAMUpybvW3Dh3iH6qLCslRSjyTC7sdnJDYeYTL90H6kkiUXXRoVlzB2rGNO3ySiIZIpigA+XAd3bM46tL+1pcWigtjSW9eaV/09VDGJyYAuvZPYLbmsqODzd95M378LFYmue0t6q0VKNRFgUOGVu+mDd/Zu+dJSBvENCAgJj1CztrKXpT9JJG7ilNDYuKz9e/p6T0iHA4eFje+vI0z8OeddEBYVLf1GkVIgYBoBQqVmHNx7cPvmliaLg4cHhYalLVxelHlszBgdT3/0RyJMSVKmzR5z+nT2oQO9JywLApCTfpS4irMWLpk0c66Hp6dFEo3pkSSuOiECCLb1NVUHt28pyMq0dCgCV0BQ8KzlF/gHhfSTiI7x0x+JAPZYV9fx0+eOHet6dNcWi6YnJEbj9eVH7+GtN//cVZGxcTruOlF1uyJgULcd2HN0946mhnorKhIUGjpz2argyOhTEvbQtCJ/NW/RJYkA0DgDj8x2dXfLPrSXVRiLIENLkptxrLyoYOrs+dPPWYRIKUQSiwB08sSnTp0qysk8tGNLZWmJdYZIEdGxM5ae7x8a7hgDT68kwjh2GTs2YVKaq5tH5r4dVmwj1tXZSZzL8qL8tHkLJs+a6+4hZjdOTg5mmo8YC2U01dUe2bW9IDezs63NzA3GLru4jGWVcMaylT4BgY7BILRSxyRC7eGRmJRUb1+/Yzu+bLDc745hUVNZUVO5LufYkbT5CyemzXRzczPW9eKcQGAML6ojO7fnZhxus1DyHYpdytTpk+cv8fD2HnpS78f6JhHQh86Do6Lnrros+8Du8oIc68TL8uLC2qqq4wf3zVm8PDoxSVim6X1Yy1h/RhTxJTIP7svLONrU0GC1Eaq3r39K2szxabNc3T1krJ4WstI9ifSD6OIXFDxz2UoPL6+irAzrNqNBu462taaiIiY+fvbSc+OTJ6B2cRiBUwtDTV91GFDYd3V2HD+wN/fY4bqa6oEz1rUiMDh08tyFSM3IztbloOW7HINEDAi7e3rOWLoiNCo2++Ce5oY660CHSorzc/mLS0qePHvexGkzvLx9rMtK3KVfBJA+6qoq8jKOZR85YMvkBQSwSIiMT5y9/AIvP3/9AmK65o5DIv3tdIlOnuAfEpaxe1ttRQlWQKYbb+JqeXER6pLj+/eMnzojNW2Gf1DwuHHjTKQXlxwDAUzXG+tq0vftriwpxHjMFukDQHz8AxJTp45Pm+3u5eUY+BhthYORiEHVytRm3sqLizOP5qcf6eqwRoU+gBSGAFXlZfxlHdqXmDo5dfqs6PhEMcExOowc4GRvb29xTlbW4f2VZSWEZbe9RaERUWmLl4dExjrkFGYoPo5GIgNtc/PwmDBrXmTi+Mw922sqSm0RScgQk3n+0g/sjY6NZzE4Nml8YEioYJOhw0i/x7wqDJvDZxwtys5obm6WJQwqAkjSpGnoUN08vZxhnDgmiTCmWZD3Dw6ds2kSsk4AAEAASURBVGJ1WW5WfsYhNmFnG2VbxnrfiROlhflVZaVBIaGxyeMnTp8VFhnVbzvvgKoyW4DSxb2EHSPgGG77BZnHMGJmtwBZqo0tdURUbOqcc0KjEUCcZf7rsCQyMCaYi46fMTsyMSn38P7ywlyIwMax0tfXW1dTxd/RvbsiY2KTJ09LmDAJ83kRZMBGYFW7Ha0HFobMXMqK8psbGmQsNyAoKGXG3PiJUxxvEdc0Sg5OIjQeedI3kAXg8+NTJ2fv343azMbZzQCgKPBRl6B8PbJ3Z0BAUPLkKfEpqaERkcLy1fSAs8tVOgtRlG0ACrOOVxTlt7W1yht7HXf+6MTxydNmMdKcYf4yrBMdn0QGGjzO1S00Ov6cC0MrC/OKMo82W+U0NQw7fjI6MX/mr6q81H/f7pCIqMi4+JQp00MjI8eNHefwGrWRgGjnDAsrfFB5VJeXFhxPr6ksbayrYxMpeWvI/CUyJm7S3AXB4dEuzrp+5ywkwtDhFeHh7ZOcNis+dWrBsUMVBdlEPJNxSGFQwF9xXs6eTV+ER0bHJCXHJaWEx8YGBAaPddbhJSO80rNC0jRMOSvKsB5kKyLrnFzMFmegj+i4lJlzwmMTnfxt4UQkMjgsXN3dUX3FpEwszc6oKi5oa2mx2pZ5MM9hBwN6k6yjh3x8fAkbET8hlYBsfgGBGNQLQ9hhWNn+E4kDEQPrUrzjygpyq8tKO9pbO9vbTyqz45ybuzsiZ9Lk6eFxiW4iKo3eHfCsHn+8OvyCQqYtOjd+0rSK/JwSg1OmZfEEpBTNxJs/4k1gAsvICw4NCw6LCI2MiUlKQhcrYtBLwdB0mu6uzpqK8sriQgxMmaJaF9rDdBHDroZHxyROTotNmTxO+Gp+BY0zSiJftd3wL8vAk+cvTpo6ozT7eFVJPq8yXmtDE8h1zOS8tqqSP5f0IwgjSCgQSnRCYmhkVEBwaEBwiIi0ZhZqgwaqvQ1vWvZkqK+uqCkvq6+rYbHWIHEo02uDVcL7ITgiMnnqzNDoOOjDCbWng1CMPHB2EgERBoSXrx8TnLjUKdXFBeX52S2NDdZ58Y3Ed+QZSIpJe2tLM3/F+Tnu7u4+/v7ePn4BQSHhMTERMXFYsrl7eLi6ujn5xAfKAKiT9MSJE4011bVV5XWVle2tLd1dTFZauToSW9nPMDY8vX3Co+MSpkxDdYoRo+xFOECGgkTOdiITHAwNU2bMSZo6vbq4sKIgh1Hbq/wmzFhb9zY0YLBQWVqcdfQgtfHy9ibYGpyCMiWQg5DQ4NBwHz8/Z3j7IVNAE5B4a2N9C7A01uHA0trUhHmO+g8bbB6dND4mOTXQEI3dgg0G1K+qfUsUJDIcfxaDYyekRiUmo9Uvyc5oqCpjEPM+HJ5Osd9YUnaXlWIaSwloUlCd8J+np5dvQGBQaDixOQnt6+Xjg0EKMyAPTy9XvUnXA3rQ3h4+3Sd6unu6OmENaNRAHM2Np/qQPyCNXjUxH9qZXj6+kHjshMnhsQmIIU6+8jIUmdGOBYkYRcZlnJu7f0ho2uJzu9rb4JGKvBzielu0SYXRfC09ybPE35jOMa1jmmurq8aMySIHrGN9/fwJfQCD8IfkgpOxr3+A4S8gkG/OGcSWAdGlf4+erw4VfJ0O6pIGDvq/DV/EFOzp7mprbkbEaG9t7mxl3aQNhaiBPrr564I0B++1FB8Z0wMRoig2YxEJSWFRBsWHjJk7dlaCREz178DA8vFPS5g0jdGPuqSuvKSpvtbwYNvvgzqgrbUFXhnt4+7u4ePv5+Hh5ent5enl7eHp7enjbZBc3D1Y3kbbgoDDQ4LOhfgGY8cZvvuPx+Jw1J+nC+cgIY4p6/TpU/0nzxCgmM2/Tp86afjvZB8/OYXMcBKm64Ps4Nju3u4e9j/GCxZ26DXQBKFsOxEtRquqFs77BASER8ZEJqZEJY4X3GFFjwgSkQiaC5F1U+csSJoyvaO1uaakoK6ivLOjvbuzQ+L9aibr7T3R22DENBNOhCwQZPopwxXOOPsh3JbLmLFnGYSaDpBJv9iCkPDVwkf/0Zkx8Aj7VJ85c4rfp5AzBjgFfjmpZhttLItJCqF5sdyJTEhm2oIxzzg3ngUFJTUbK6zl2wWJWNA7PHLYvPIXgqdm74nmuuqq4iImO031VgZSs6BsOZLy1J8VCuS2/pajdirlgSAWFhUTkZAYEhETFBElVB624+7gJMKLEqVGa30t5oy8gRFcA0MjYAEZgHP3CItNxB/n9KlTHS3N1SWFjTUVRPTtN7JWxNLE9jo7bQ7scxYQFOgbGBQRlxQel+Tli7p0HK8EpwVE3oY7LInw1iXATGHGYRZrB5dXCNUfGBTCOm5UwnhZ3KV4j40bOzYgLNw/NAz1QHtTQ3NdbV1VWXN9bW/Pid7eHqWNoOQdDY6UG12DGgg/g+CIqIj4JOLd+foHjnUlxofgDjn7mZU0hyURHunj+7YXpB+BTQYxO9HVVdvVRRjnmUtXxKdOk/FdRFboLIMio/lLnj6rr6enuaGmvrKipba6tQXxZHQt6GDlxIEsCLi44PEYFB4RgIdBRHRgWASecrJkLDIxigDh4BwW37LczMLM9KEMMggBFpC5h/ahS0O1MXhS3gPsOnDuDItJMKxc9J7oaGlqqKpoqqnq6kQX22XF5s/yVs+xcnPBasbbx8fTxw+/uNCYOB//QENUl3FiwqJGP2MfqD8S+WrF0RRAWJqW5WeZiJeJ8qIsJ1M5EhmoHOIJhtL8efv54/FJfTCU6GprbWusb66raW5q6GprH1jlMNUYcW0EAoZZ5LhxrK0gaASGRPiHhvgFBHv6+Aot6QioFD+BxbX+SIR3u1lgCGLV2dZuOlldZRlmDrJoRkwXNHgVuTogBDP2sKikFE6itGlvbmppqG1tqEc122PwLWtVwdB+sD46OoCOvf398Vr08vEjelgw08YweRTkOgJBm1XVJYlIMRvFpNpssn5j0BPuXnbbFXUglDRuxGcmnEGD03eiB+usDsw6m/EWqUdgoQn0EN8aN9aSeXC7uOCUyHwQYzi+ETEwHQ4MDWdNjUmKmKfIjLbN2elyOtPVbl5JibDrMs5MEHbkAkw3bcZQhgwGlLLoZdkkDXXgQI6sHPd0dnS0tXSjRmlvh1NwXqXtGI9jQypDqVrKAq9l3JhRbfgEBnHAtrX8efn5QRyAo6WairoMR0CXkkhbs/no/r5Bwd5ePqanBkTx0LLeHh709g/gzzDvYX2JLz4GG/ST2Lx0trb000obFNPXg9X5iVP9bmtYnPedYLr39YLU8D63x29kLjds7t0NfxA3dInjj5e3L63D2cfbLxD6MHj6uBhsaPsPBHHYo5+sKlOXkkhHWxtqEQaiiSZjERAaHcOSyGhpGMpxE1J1YjLQ/zLu/xqDOtHNDQc7FCsDTYNWDFOhfgcWw8HJEydP9J7o6TphcF3Bi6WLXTJYb8YQHpbBSL3fWB0PGBzjDP/jG3P2kGN+DbLP18LO2DFfiXQ84hT6VW0M5znu/8KcnqUQaufGB2zZtMmDqYcXLoI+7NrBHMTV3c3V1Z29FHDbcXVzh74HGjRaB4nzekFAl5IIAQexDY2ITzaBMlr6CTPnY/HVWFtjNFlcCs7+Bu2m3j+01JUIRhKC5RjkmJP9bvZ42ff1slR0iinTyZMGGjp50sAuONR9xR242A0gQ/5jx57ljn6mMHjeGBxwDJ57Br89gx8OrEEdoAYRj1rv48ny+utSEkFsb6gqNxtiG3+5ueetPrprU2N19dDIFEyzYxKSpy1c5ubhaTliOr6DNz/xDfiTxepfx0CIqsuKgC4lESb8DVWViOweJhdWeGYwRZ+/8tKa0sKa0iLWT3mFEigsMmE8XptWeHz3i//9WonTpw1vZ97PA3N4WbtEZCYQ0BcCupREgLi+uhIPWujALNwYICVOmcGf2ZSmEyDx11WUlmQfJ9hnV0cbL/OQ8Ii4lEmxKZO0rJ013ShxVSBgOwIzZ87Un7EZzUYoKMvJQqBgQm47CmZzQH2QfXA3DMKyyEBi9jipKimqr6psqq2ePG+RmCCYxVAkcFQEIiMjv9K8662JCCONNZUq1BpdI/SRc3j/IIMMFooZGHvK5x05MHhGHAgEnBABvZIIc4qCY4cNegqFPzjgFqQfHM2+C4opyjmOZ53CtRDZCwS0i4BeSQREq8qK6ytKlOaRptoqvPVMdGBvdxeK28HFURMpxSWBgEMioGMSQVWRc2DPic5ORTumpb7WbP5EXcXkwmwykcBhEODVxfBT+gWmF7jUUEwqh0VddWXh8UNT5i8h2p1ipZg3wWZEac3SXDE0HDljSAFjaNwgDc6Qhi3Cu3BWwrjREMW+p/sktr99fZjmEfCeDse612Cty/+G4Hb9xrq4AGGe6+7p4e3l5YddsSHCPka6nOTbgS109U0i9HpxtiEsCAasCnUSgTnNPjde3n7CWNMsSlpLcFaOMBjs9mHc3NrY0NbYgK6tF6cBg8NAl41bqWLJa9ipw90TRyFvvwD/4JCA0DCin+ABMOgtoDVMrKuPvkmENrNpQ8bubb4BwVKediswCouJx0kMD/3R7sUENDIxSUlRaLSSxXkrEYA24AviLbTWs1lnLcH6zQaOsKIk7KQ7WvE4/4bT+VhXt6CQ4OCwyAD+CHHwldO2Fflr5xbdkwhQsgnj8T1bZyxdyb7csiPr4+cfP2Fy9qG9RifAiD9RCUnEfJe9XJGhvAjgGcROWh2tTQ2VFfUVZZ2d7WzfqX6gFtyXGmtx6aod65qJ77KXt09QSBgxH+RtrMq5OQKJAFlFUaG7p/es5atkD5CHQerEWfM7W5vLCnJH8khkbOLUc5aKuYzKo9ai4tB511eUVpcWshFpY32dRtbR0MsadhRtbW0w7I6q74+DkAiqzeLsDHxJJ89dZDpKgBXdRbazV1zEtgOlOccJE8ROkfit+vj6sXlaysy5eK9akae4RWkE0Gi0oHgvyq8tK3HISE5KAyg9fwchERqMPVhBxlGc0ifOmie7PwtMET9pGqzBVljMddHGs3c8syfZBR/pPSdSGkUAQYOVlJqSwoqivJYGg6LUaDJxUkYEHIdEAIWXT87R/adOnzQs+sodVo8M8ZERbjIyDj55s2KyyayzPC+rqrhALxubyouAvXJzKBIBRAJ55eDMcubMxJnzCfNrL1hFuWoigNK0qa4G+qgsLurubBupulKzMgqVdezYsS+//HLZsmXEllSoCKuzddEU4nKJDyzRJ01Jm7ZgKTF45MrTaojFjcohwOSFCWZ++sHakuK21mblCrJ7zgzj0NDQSy655Ec/+lFaWhoRbexepcEKOCaJGJrn4hIdnzhj2SqsPAZbKw4cBgFefl1tLflHD5QV5mFa6jDtMtuQgICAK6+88r777ps1a5bZxOokcFwS6ccvIjpu8jmLsOMQ8og640mFUqAP4rmU52ezWNbcUK9CiUaLQBYYzbfbaHoZT1J0QkLC9ddff88990RFRdl9bDs4idBzAYFBk+YujJ0wWVhzyDiO7ZUV85fa8uLcQ3vra6pVsPgICQkJDAwKCGTDzkBfXz8fb29vH283QlKzPuc6jrjXhLrG2+bEid6OjnY+bXxaWxsbG9nmWmmI2DdpxowZDz300Nq1a+07u9EfiXj7+nZ1WGbhh6tC4qSpU+Yt6t/GRenOFfkrggACCJuN5h7aU16Yb6NXi9H6QRPBwcGhYWHR0dHjx49PSkqOjolhOy3oYuw4oun274nTv2PG0Df/gEpx8Ps0xHaKX6c7Ojqqq6sKCwoLiwqrKiuhlaampha5mYWaUMPzzjvvN7/5zeTJk4dWzGgbFTqpPxJZuOKC/OPHGurMe+gPhQyDjtDIyLSF5waFRwmRZCgyujg+1deL2RhB5Job61l6k6XOvL39/Pz8/f1TJkyYM2duXEJCeFgYfi2eXl6y5D+QCYyCO19TY2N9fX1xcXF6enp+Xm4rtqqdnfgEy1XQpEmT7r333ltuucXX11euPKXnoz8Sufym2/yDQr5Y91ad5fHECBCfPGUaq7923IJXet+IlAMI4FpyfM+28sI8uVxd0E2mpk6aPGXK3LlzUydN8lTXFID9Cgvy8o4cOZKRkZ55/DiEIktHe3h4rF69+tlnn01OTpYlQ+mZ6I9Errjp2xPSZlSXl2756L2q8lLpTR1IaRBJIiLRkoRFx1uxcYSlxYn0tiCAu21NSVHOob2NBsHTJgEEUR8FR1JS0sJFi+YvWBgaEgJ32FGVgITS09Nd39B4cP/+XTt3lpSUNDTUD0yLrEaM5qSmpv7kJz+54YYb1DQn0SWJTJw+E7hRrX3y5muWzmsGegjD07jklElzF7GnhL1mklaPFWe4kf49c+pk7uEDhZlHifZgS5NRQIaHhy8/99wFCxehOFBZ7pBSc/Syubk5e/fs3rxpU11dHTu5SLlrtDRodn7wgx88/PDDzNRGSyPveb2SCCgwzFqaGrd+/F5BdqZ1oGBCkpI2M27iVE9vH+tyEHcphEBHS1Pmvp1l+Tm25M9aytSp01auWrXi/JUeHpoz9BzZtJ6eHqSSTV9uPHzkSJcNcT95L15wwQVMbaZOnTqyFNnP6JhEBrBoa2nevXFD9tHD1vE3tq2BIaETZs6NiEtkG2rZ8RUZWooA6xtsBkKgqcbaat4Tlt4+kD44OGTK1ClXXHkVogfaUx0JmzS5u6vr+PHjGz755Oixo2hkrUMA+QvlyN/+9relS5eyZ7J1mUi8S/ckQjtZpt/5+cfpB/b19fZKbPawZMSbiopLSJk+mzhmwjF3GDhq/uQRqi4uyNi9lXeDdeWiX5w7d96atWvT0qbrQvoYrZl9J0+ieV333/8eOHCA9Z3Rkpk+Hxsb++STT956662mk9l41RFIBAhOnTpVmHV8x2cfN9lgwoheKjIuIXFyGi7/ON3YiKy43VIEiB6Ud2R/Xvoh68zYiYc8Z9astdfdMH3GdNdx43QkfZgACiphSfi1f/4zIz2dVWETKY1eAgSWojBsfeSRR7xkXboeWpyDkAhNwgaZxZodGz6sLCu1xZbR3csrPCo2aeqMkMhoxw7SPXQc2P0Y9+v8owfzjh2wQpxEdI9PSLh6zZoV563w8XU0TTnSGaZrO7Zve3fdOixNrJi2o2G94447/u///g+DOiU62nFIZACdjva2/Vu/PLZ3lxVYD8V37FjXsOiohNRpUUkp7kJXMhQaBY4xHc/ctyM/44gV7M+DcdHqi6+/8cbgoCAFqqahLDGr//e//vXF559h/GpptZjlrVmzBhWJEtZojkYigItJUn5m+sHtm2sqKyzFelh6wiD6BQbFp0yKSEj2CwoRpq7D8JHlJ4HIUKOW5GURdtSiDBFAZs6addPNN0+fMdPN1dEi4xiFwjC7yc199dVXjh45gs+O0TSjnYRHLr/88ueffx67/tHSWHfeAUkEIJAAG2tr9m3+Ii8z3UaRZADWgKAQZjeJU9KCwiJcxrk6xnzbuhEj7119PT2Z+3cig1hqzM5Uf/Xqi2+4+eYgZUR0eZspb24Yub791pss31jq5ufm5oY88tJLf2L1SsYqOSaJDACEliTz8IH0vTurysvkgczFJSI6NjJxPJpXv8BgsY5jI6rMYo7u2FScc9xSBpk8ecqd3//B7DmzbayAfm/nNYmq9cU//jE/P8+iiASIbxdddNFbb70l47xm3GOPPaYdKB9//HGzlZk0fVZIRKTZZCRAXgiPik6YOHnMmdOdba1Wr5MNLauzva2usqyurBhbBpcxLgRwZsojBJOhEEk8ZlfKrAO7i3IyLNKDYD+2eMmSn/z0ZykpKc4Mu2FsR0TMnz+/pbWlurpaui8fjIN2llsWLVoEmBI7y3QyR5ZEBlsOcCW52Qd3bCktzB88afsBHRkSHhkUERWdPCE0KlZoTKRDSlRUPGIyD+6xlEFuuvlbCOTePsLC+CzYGLZ+9NGH/3z11e7ubun4s9x72223vfDCC0xwpN81WkqnIBEaj/iHLUnuscNH9+7CeY+foyFixXnmNf4BgRiqRSWN9w8OM2wlIXeseStqpdlbAJ+oQjmHLTMOjIuLu/uee89ZsEBp+0vN4jZaxXhH7tmz569/fqm01AJ/VAKR/PCHP0T2t51HHHk6MxR0nmpsycKY3aRM9PH1b21qNMxu5KISYkb0dBNwvLa8tLasqLG6AsbCXK0/ms3ZYDZDK+PMx4gebAqTsXdH74ke6TjgnHrvffcjvdvR71Z6bVVOydjGMnXChAn5BfnNkld/mQFlZmbGxMTYHvbZWSSRYf3KviQZB/bmph9ulTvY1GBBPv4BweERQWGRgeERoZGxIuzAADINVWWHNn8u3aqdJ2TqtGmPPvp/UXIvTA72lMMcVFVV/ebpX7P6K71FLPdiPHLppZdKv2VkSiclEYBgdtPW3Jy+f3dhVgZbtI6ERpYzCEBu7sRC8goIDY+IS4BXvPz8+O2EKzvMYjpbWw5sXN9QWy0RW+SOhQsX3nf/AxEREWKGKAU0NKZ/+fNL27ZulThhB1ViQa5fvx5ZT0r+RtM4L4kMwAGVNNbVHNu7uyj7eHtbq0TojUIp5aRvQIC3j69PQHBoVHRIZKy3vz/BO8f07yHi8A/JqZN9hzZ9anRfdKPQAQgMcv+DD0ZIW4wzmokTnmxsbHjmd88QnUTi0i9MzXY2r732T6uNR5ydRAYHGQxy/MBeorfWqRJGfKDcgOAQ/6BgdLG+fAcG+wUF40/skGxCjLLcQ/uP7985CLjpgwEZ5NFfPibXMqTp4hzsKr42z/z2t1u3bpH4UmTIEaL1mWeesS4emlMYC0sZIn7+AQtWXDB1zrzi3OzMg/ubGuu7LXealFLQ0DTod/kbU5jv5m6Y87h7ePj6B/oFhQaFh3v7+rt5eLp7eKJMcYC5D1EOC7OODm27iWPG9KJFi3/0wAOCQUygZOIShmR33XM3Uvb27dtMJBu8BNe8+eab7IbFuu/gSekHQhIxgtWJnp7S/NyC7Iz84+kEKzGSQvlTcIqPr5+Xr6+nlw87XWAgSxw2/+BQF4UDzCjRsp6Ojt0b3mPaKDHzaWlpj/7fL9mWSWJ6kcwoAs0tLY/89CfEgjZ6deRJNsRiqdgK2AWJjATTcAZuZkrJHCf78IHinCwiy1vhom48a6vOoqDlD+tYX39/mAVaQVTx9vXDwxhpZUBmcXV316DMYrBt3/ZFcW6WxHYTfv1XTz4lNKkS4TKdrKK8/KmnnpTIIwiAl1122WuvvRZkoT+0IBHTvYDF/OnOjvbqstKCzIzy4vzOjg65Ni4wU7CEy8Qr8PDydHd3GzvOzdXNdZyrm5ePj4eXr4e3F4KMh6e3p7e3q7sn1lmQC0PEwESGfweODb9xDTB4B1hiGnd2ms0/WNn0f/d/sW0T/0K8/f+cOoVv7onuLnZ7aGmoLcnNkggaFmUPPPjjOXPnSmi9SCIJgeMZ6b/+9a9hEympsUD71a9+df/990tJPJhGkMggFGYOeETaW1tYDy7Jyy0vKeIJMXODNi5DGYRZ8nB3H+dqYBlkGcO3qytG+uwEyTcfvl3Y563/M1Brw5kxLhwbuOH0acNJg8nvaQNtnGLvSPZ5O0kgMr45xIW/r6/3FHtKnuztY3O6HvaVtMAEe6BEvtGA/N8vH2NLB4tIbfB2cWAUAcbt3r17n37qyZaWFqMJhp1kUsOK77Rp04adN/FTkIgJcIxcokt4YNpbW3HGQURvrq9rbWnmpJGkujs19Nn96tjQsK9ap2gzYZAbb7qZ4CCQmu6Q03iF4fn/vv32v15/TUqARV4wrPiiZ5Wu1RarM5YNAB4uFlJCwsL5m37OwvrqqsriItikprqS0Bj0lmXZaSr1UJIYeqxKJRFA1lxzjWAQJcBGxLzs8suLigo//+wzs/kTf+eLL774+OOPr7vuOrOJBxIISUQiUGaSdbS1luTllObl1NdWs12bvtnETFvlv8zGDk/0K1Plz1rk+BUCbW1tDz34YHa2JA339OnTP/jgAzYM/OpuU/86uAMeXl5Eb07fv+f4/j35mRntLc1EAEHdCDebQsXyayyRhEXFJE+eOn7ytKRJU3z9/CgCNQNr9egOLM/Pie4gSOpDP/kpxtdfTaGcqO1qNhVDsojISDxrpExqiJnGvGbVqlVSaujIkgibAG39+P3CnMzurq9j7QcFh06bd8685ecrLTmfOnWysa6utqKsurysuqy4obYODaSULnGqNFDttdddd9fd9zhVq+3VWCapr7/++muvviJFUsZgZMuWLVJ8avSnE5E4W2cl5dP/vVFaMDwKUXNTw84vNvR0dy9etRo7UeW6c9w4V+KqhUVGTZ0znwUOdm+uLi0pLchtqK1pb21ub2mRJfircvVXJ+e58+YTZ0idspQopbevr6mhoaOzU+KwlKsOkC/LsSGhoRZFqEbWu+qqq/JysnfuNO9/UFtb+8QTT7z88stmN6zRH4mwOGK2J+hR3HPLCguMpuRq1uGDcUnjx0+xYB3LaFZmT9JtfHCxw/w0ZWoaJcJfHa0t6FAIJV1RUtTcUNvT3YONrKFdX62DmM3WMRIwkfnWLbcQclmPzenq6tq/b98nn6yvq609QeB1dfuOQcX0JDIq6uJLLpk//xx2KTcMMwkf9qD59h3fSc/IaGttNZ0caQUN65EjRwikaDql/khEih06Ykh+RrqJl0NnR9vxQ/tVIJFh6NPTXt7e/BEeKSl18txl52FiQSCChpqqlsYG/tqaG1uamqCYYTc63k+m3BeuXj1FlR2nZUePeOt//9tfP/v0U+nBTWWvAxkSLfXwoUPLly9/8KGHzcoLAxVgBBK+iL0jWPQ1W/mGhga2mJg3b57p6Gf6I5Gu9jaz/cFL3qz2qLayjAkFQ9lsboomwPorIjqGPygPNcpJg7VWL2zCdtZNDbXN9fU9XZ3IKUgrXV0dZ+2+FK2QWplj1HTDjTdZJI2rVTUz5dBTf/3LX9hEyuxDaCYjOS4ToO/LL7/EffR7d94pkUco9uo11yBiSDGH3759+6ZNmwgQb6Kydn6ETNRstEvNjfWjXRo8z1N3ss+M4xx2l329J+xOIoN15hXharAldfP08vILCIhLHs8lRErIgxDz7OzX3dHR2tzY1tzEGhORwXD3xmCUAX36lIF/+H8wK+0fsJHSVWvW6HHPOnDOzs7esnmTFhhkoKMZJJs3bTr33HNnzJwpsetDQ0PXrr02Py/P7A5YdXV1r7zyiqORCJEN6UjTM0D2dmbN1fTEB/Nv0kgE3V7J0J95427n68v0Z1gdEFiYtfHHbhhY0DJBI3YBxvi0mn1tT/T29PX2wT+Wbis3rBSFfs6ZO++881YolLmi2aIKefM/b/CtaCmWZt7c3ET0EOkkQv4LiPi0aBEx0EyXxbOG4VleXt7EiRNHS6k/SQR9QXNjQ3Bo2GhN4jwb07Cxs2nNQmR8gtKrvCZqaPsllpaCw8L5G8iKzsYghemQwbWFf0/iyWL4nOju7u3pYrUbkxmiSfPX14Me8MTAVTQyHHADxu0G+/avDG5xmBnIFmUd3jdnjw3/Gk6AG7MwhCZinfCPq7shAqS7h3t5UWF5ceFAYhPfiCHXXnudjJsnmShL9ktZWZnHjkoNjCJ76SYyLC4uMXF15CXmPmuvvfbo0aOt5nxqeCW9+OKLzz333GiaEf2RCG/aiqIC0yTCFBGlaW1V5UjsBs4Qq2PyzDmjXdXjeUSzfhc7azoUeRgCgob62cTQephlAASD3+/YfmcWlzFQBxRi8NwzZqrX0d6edzxdCnQ46abNmG5alpSSj/ppwOnD9z9Aq6p+0WZL7OrsMJtmaALwT0ubPnPmrG1btww9b/T4s88+u/vuuydNmmT0qsyGm0bLkPckb9fygjzT0T0AaNai5anTZxodqbxF5yxZnpQ6Rd6K6Tc3SAFMEG1Qxwz8+fj5DfzBtmdPenoZxA43N6MMQtvxb8YExiwIwcHB16y91lWHXnaQ7N49e9LTj5lto14S8HRg6RceflaYNVHtwsLC9957b7QE+iMRWlJZVowuYLQmDZxnGXXFZVdPmzOf2MiDVILoHRQSuvD8C2cvXq7ruYzptqt/FfGQKHBSyp0yZQovwMEekXKLRtL09vZhFSLRoV4jdTZbjYkTU2fNNr+lMQQKiYy2yZ410q/ZmimdgM1iCrMzB9UBRotjmPr6B1yw5vqaynL84tCPMLfnlsTUyaanQkZz4yQ4olCoqSjv7uzw9PIOi47x9fMfLbGznce0v762ymyrMbK84qqrPTwUNBQ2WwerE+Tn5e7bu9fq27V5I33Bcu/WLVtQfJiuITYpGzduxMBkZDJdkgjNyDl6aNKMWX4BgSObNPQMsnd0XEJUbDyzWYNKsD/A19AEEo9ZZMWLL/PQflSUp0+eQi+A3J88ecqcpecFBAXr8b0qseESkxVkHuuQoClgGyocdiXmqalkLMe8/fZbZhdENVVniZVJSkqaO2/eLnOG8LjkrVu3bvXq1SPVq3olkYa6GuTn2YuXSUGKh9zqyQsCSG9Pz8Z3/1ucn4M6ZrA4FlMP797RVF97/hVrTctEg7c46gFa2JK8bLOtg9DPW7HCz8/PbEoNJmDHyYx0SfM1N1dDwElZm3Dm5CkshmTNckhmLJadv3IlS05YHg05PfyQB2Hr1q0olbExGXZNryTC2uSR3dumzJqLX/+wJsn7k0XTHZ+tz8/JNOocUZKft+Xj96+45Q7tGK3J23wpuREZX4qmIDIycuXKC+R+wKRU0NY0iLH/++/bvIrNZhQX6f7g9SGRwXIGZyMo5b8+7/h8j1JLQvTI4sVL3vrPm/n5eaYbWF5ejnXs9ddfPyyZXkmEZuA9eWD75oUrL1L0AW6qq8vLSjfKIANQVpQUlubnEEZkGLJO8hMxhGALZk3aGKlLli3TozaEN/DBgwdzss2LWvT4lUsCfnCFL5GzZez9k6fO7Eo3o7CwsThsRpYtX15QkE9jTWeFenXNmjXDZjRyttZ08UpczT5ysKaiTImcB/OsKC7sbGsb/DnygIWJsoI8XlYjLznDGcLf15Sb74KQkJBFi5foERD8lj5Z/7EU25AAn7E/utZPXgZRDTHsV0PDTBlwDtQkPT2d5d5htdKxJEJLCJK845OPLr/ldh/FFkpaJLjqsN7M9Ir964aB6ww/0QrVVo9q1DeIQGJi4hQ5VKq8Kmuqq3ft3pWdmdXU3IS17WARCh3gI1M4IirNyLKwv7tldXBipJwTmZGlKHcmPiFh6tSpW+vM7GxfVlZ26NChYVZn+iYRMK2qKN+/ddPSiy7FDkoJiDEDNZutwZRTZl2a2TK1kqC8MF+KbzEvOmJe2FhpDGq3bdv2nzf+XVxUNFTJbWO2stweE+F+y0W++h0G9M45Cxay1msaDUxFUK/edNNNQ5PpezpDS4g5eHTfrtz0owpNKCKiY4fiNfKYcRMUGqYQhY0sTlNneJIrigvMVomwQwsXLTabzHQC+nf3rl0v/OE5fE+1xiDU/LKF/nNS3fVLIjRh2bJlUhya4PFhHsy6JxEaz1Riz5efFrGAosAnOjGZKIcmMsZPJ2XaDF2PHhOtM32JWEpmTYfJAbPIoOBg01mZvdrQUP/yy/+QskRiNivZE8RGuN95hY7FkAFAWH3Hl8YsOPX19cxohiZzBBKhPc1NjTs//4S9Gsyql4c2XsoxoT1mLliMY4nRxGNdXSfNmEMgVaNXHfskUDdUV3d2fB0E22h7MQ9Jm54mPV6O0Uw4SZhyZjGjXbXjeWxCLl/slxqnyGxa5XbNnj2bIW26UGY0u3fvHprGQUiEJtXXVH/y1r/qa8wbXw9tv9ljfFinn7N4wYpV/iNCgaJJPWf5igXn69L2wWzDzSYw6DgrywnEZjol77fZc+aO5rZn+t6hV4e9/YZesu9xWLDrg9cHeLg7wqM0ZcrUUHMyI2a7rHkPNd41wzr27R5LS6+tqtj84boVV6w1PQGxNFumKnOXrYgbPzF936766kosI2CWkIiIKbPnx41PGU1IsbQU3aVHSVFXWWG22pAIQT3NJjObgL2XzKZRP8FYlzFXLw9IinIEMQT0MIEPCQklmpkJJHl55ObmMq+MiIgYSOZQJEKTyouLNr771qU33hYQHGICCEsvYc8Wk5DIX39cnx520vTwIr62I7x8LIViMD2qKClOdxMmpto+l6FQhRTng82x7iAm0v32i/0cZmkOD8kJEydmm9slD2e8oSTigI9BVXnZB6+/XFpoxobXukHj4enlHxiErb2TMwjo1VZWYGhnFkYpnuZmM9FsgjXLA1iU0Wz1rKgYahGzd+HlQEi0wWQOSCK0ra6masuH7xVlZw6G6hpssDiQC4EGCb7/7CyTkJggV4laywdPme9f5otnuNYqZkt9mNGwN43pHJjRZGRkDKZxTBKheWys/dm6tzMO7EHqHmytOJALgf6lGfM67ODgkPCvosDKVbRG8gkKGPvkd0MnOMSizFBI/QMC2RNr6Bmjx05BIrScAOjbNqzfsv7DjrY2Br1RLMRJ6xBgU462liaz94aEhhAP0WwyfSXw9nCZN8X37w9F37DS0cQQOsLHxzs62pRh1EBnYf8+qOp2NMXqsOHYe6L72L6drY11yy65IiwiiqBEwxKIn9YhwJZa7FBh9t6YmBjbrd3NljKYYEK818KpXsp1MhOXkIBx08e7nTfLKzp0nENaGBJeJMqkdeUA2jBIZWXlwMRHfyQSERPHUq4J3/zBITVwgAxSnJ/b/Po/5i5fMeOcJbYbLAzL3zl/sqNwT7f5vVdSUlLUfNJmp3r94+FQdzeHUlKoPMDoL9QibPQ71BJkZB0I9VZVVTUQp05/b+b/b+/Mo+O46nzvWEurW72oW2rtuyxbtrxKiffskIRAmAch5IRh3gECk4G8HIZ5cDjAecA/TEKAMJOEZBgSkjCEhCVOQjbHIYnt2I6XSLZlS7asfd/Vai2t3X6fVtlNu9Wqqt7k7tZtt9q13Lp177eqvvW7v/tb8krWFq/fpGhX59HtIZvtg7fffGfXi9ikiaGNBzh+rDLVPT6mTCJ5efl+VC4OubIIZOfkeEQMmd8eIiRg/y5tjzwSiY2LX7vluqLV63x9xZHGqerYkTdf+F3tyePhaXQw/1KF7RbH6AgZsOSbxwXKycuVLyP2hiEC6WlpioG+RkZGursvZgiJPBIB9Nj4+HXbb1i7ZacfOg5mf19/8Xev/eHZtuZGIZL4fQfbBwcUjyUQkS5Bq1hMFAg3BCzJyYqaLF7Dzc3NUssjTycitZsEjsUbr56dmW6oriJmsk+XAe44d+pkX2dHafnmdddsI0uTr0KNT6eLysLkzVDsl8mUJIBVRCkMC6A3ZG6+p6dHvm0u6/iIlESkvpEPds3mneu27NQm6uV763UvCX0P7Hnzr//zdNXRQ8ImzStEMhtJ7iuzV9pltpiJsq9YTBQIQwSSk5Un5gcGLkqjkSqJSLgznMlfs05nNFUdeH9osN+Pi9HR2kx0v7MnKst2Xp9XvApvOvHyVAMjU7yKxQxGowBTEaXwLECUHMWG2WwXs1BGNonQz6uWx6TlFpTdEFt9+IBz6teZ3d63DyatrY31A73dWflF5dfekJ6VQ0hEcffLgzgxMS5fgL1Gg2F51LimKfY2ugqYTAqW73TXfimVbcSTiHTtkjNztt7+v05/uL+ltoZMMX5cUKKWnzt9srG2Jn9F8cbt1+cUrlBUUPtxlqg5ZEaF611iYsQH+4qa6+VrR+ZHz5lfgyvZVZSQCD2M0ySs33GjKdlaX1UxPKScZ2g+KGxBKqk/U9PV0Z6WkbX26i25K1aSdldIJfOxUqNFQsMvoJsPXURsIUusYjtdkVajh0S4X5n6LVy7McmadurQXqIHKaKwUAESzTQODzPGyckvLF6/cfXGcgKILFR4aW6fPa+cqwED6qUJThT0WtHYjD66wmVHD4lIVw5VqyU9c+cdn6s/WdlQfdIx6n84LKQS7OWb688dfe+dko1XF64uTc/O8TunbxTcWK4uYCOgmCYCTl8eg0pEWKC7YIukBTVJlCYvDWmjjUS4UHMiiWZl2WZzalrN0UODfb2klfD7AmJUMmQbPLL3nbMnPsrIzSst34LzjjZxSQclctr7qtBfCwbx+6674gfGqpibj8LhjAfuy2Ni0vIKGdo011TVnw5IJKFmiUpgk9rqU0RbyF+1pnD1WlLSLE13PmevhYThccNF16oavxDXzEMUSiLuV1OjS1xZtiU9r/BsxZGutqbpSwKYexmflslc3dnW1tXefuLDg8mpqSUbypgYNltTXYD6VFuEFkbEUIwOCe0S0ZpfIY9E4lV26TtkGu/SeUU5iQABWhKTNa3sxlu7CLtaeXRooP/ChUCTb/NsOMZGHU2jHS3N5uSUlPQMBJP8lSVanY5A8FH/2NBBNbohl7grcyOKXeGJwJSKeICuF2f0k4h0keI0mtyVazLyCptqqlprT9v6/TFvnX+9kfoG+nr51p46qdPr84qKswoKM3MLSWfFeGp++ajZoqZ3Dse4kEQi9IpjNqXYcmKOSGWWColIvcWWpHjD1VmFxXVVFb0tTXZ/zUm84usYHT1z8nhd9elEg95kScktKs5dscpoNusS9Wre217rDNuNaua8x8ZGIZGw7YJomAwCYyrC1pFfQqphaZEIfWZ0k2gyb9hxk31Vb/OZUy31Z6fGlS24ZeD22IW9rN1m49vaUKf5YG+y1WpJTcsrWplTVGwwJXkUjtzVeK2yMdKYiqhFkYtAdLd8ZETZNoJQ/hIIS45EpG5LipIN1rQVG8obTp/oaKobs9uDflsQo6CztYVvdcUx/HFSUtOzCwpTM7OT0zLMKVZNQkLQz7hoFaL9UTzX0JBt9vz56JPCFDseBQVcHroyfXGF4F6iJAI0kvpTn2RZv/2GnBUl7fVnu5sbhoftimZUMrAutAupHtM1MtfyxRZQbzTpEg3JaalZ+StSs7K0ukQIxelAHLoQwwu1zN/tpO9SPJQURxfOi+GMIk7hWMCu4p1qNpulpi9dEnFdOh5djFzNaRkrNlzdcvZ0Z2PdYJ9COBbXsX4sMGdBKBO+Ha1NhGvk7ElEgLGmWaxp1oyslIwMc7I17pLKyo/6F+cQrc6geCLi2gY+EaZ4FlEg6AjwzhtQMfNgtVqlUwsSuXgJEEx0BmNJ+dbC0o3dLY1tdWeGBvrUxO8K8BIi+DBV5JwtOlMNdyCP8M9kTrakplszMkwWq45EIHp9gi5RjTtDgI1Rf7jJrCpoDWoRxUB76k8qSi4OAkN2O8Hc5c+FwWFeXp5URpDIZVghF2h0urzVazMLi229XW3nznS3tUAli/NGnZ6a4rtsbJlTL9tYT8s0WpQPifxhNUdqsuS09KRkqyk5WW8wcRX50GB+FE2/LutkMFZ0BgOkJm8Jwguts6NdTYysYLRI1BE0BHq6uxWNzfR6fXp6unRKQSLeoceuJDUnn+/E2OicuqSxv7dnejKY8zjeT3z5ViLU87XNC4qs0WgNSUZ0K3pTEuoVvdGYgD+PXq/VG/gf5omL10hKn8vrC9oaERI4HWQnXyPp49etXy9fRuwNNwTaWlvlk87QYK1Wm5aWJrVckIjCFUxI1BetL89dVTo6ZOtoqO1tbyUpJ4n1FA4L8e7JyfHJnvH+S6F04Yu5oZAmNi4GMzD+YmPjkGK0iYmMg1Dc8szHJ2g0CTo2wi/OIk4pxinHIMVIv6y6eIdtOMegFJXUzMgUfFg/f8EZAQB1qWNkODZG+eZpbGzgQFe1IUZFVB8EBLhepMiUlzE5jU6nE5KID3DzDMQnaC3pfDMRTAa6OnrbmrvbW0YvhYfzoa7QFOXCT01O8lVTPZSB0R2DESeRXPyDduglKxf96lwGqednnayB6//cgO6CFIsIEsEchswjiqfraO/AYVyoRRSBCp8CDKk7Ozu43vJNYjiTnZ0tlVF+mcjXtdT2IphkFq3ke35muq+jrb2h1t7fhwpWjddjmGBFUzFgWRxZqg+fgP7+rEt3W5ggIJohgwBBD5FEZApIu9CqLnVjM0WMZApIwnlMXHx6fhFKE+IejQwO9LQ1I6GMkRduwukwInP4ktpls9kwWxIkEkEXfXRstPfSMFmm2WvWrHHtFZKICwp/FhD79SYz34yCFbPT0wNd7f1dnbaezv6+7uBa0/vTuDA4BhJpaW1Zv2FDGLRFNEEVAq3NzVw1xaLr3fTl0U8iztH8zMzU5AQShCZBG7p0SiTlS80tsObkwybTkxP2gb7u1qahvm4HzkzDwbepV7zMYVLgxPHjd9zx6TBpjGiGIgKVFR8plmEgs3HjRlex8CIRnvMgjgWoamrc0VZ3tqe1EaUj4T61emN24cr0giKmL6RRiQuIYC1QLfGi+WoNRkKr0YAR+yDjHVtvz2BP1+jwEKF6IkiBEjgstbW1BKfAii7wqkQNoUZgYmKi9tw5xbPk5uaSaNlVLLxIhDAninNLKp9AGITBxYn979r6e129Xbass62+Fo+VjdfdzEPutj0ki07ZB78YXWJKRk5BqTPG4qhtcLC3y9bbPTZkGxux222DITlxOFVqHxo6V1u7du3acGqUaIt3BLDr6et1f168FOOuRiHicpyhRHiRCPNGiuOxmWlVE5nDA33zGMSJCE9ye1Pd8tjlm677eLxW2YvMC4r+bgJ9gyWZL+GRZrDmmZwYHxtBQrH3dY8M2bBVZcvEOHrZQAOv+dvAkBzHYO748crS0lK6H5ITiEqDhwB0P6ikEME4gLGMKzYiJw8vEsE8SpFEFEUVeoWJVENV5eUyyGVIdzY3pufU5625MsaUmHLF4babkJBoSkrJzKFlTBg7RkYY7Djs9uGhARhwZMTuGFaO6XBZr8JyBQPqmurq8fFxzJPCsoGiUX9HoLKy0ul4IfvhId2+fbt7kfAiEVesJPcmeiw7VJh4DeMk29XucaD7Ko75LbXVV4pE3FsiLS+PjdObLXwRlJxbnOahFxBNhgf7xoYG7YMDjmE7cgpfrOAnxh0Xi82vKCy3QCKDAwOCRMLy4vy9UTjdqdGqpqSkhDWJYI1fV1f39255W8L83Nvmy7aND9t51C7bNG8FjQSzNstjw4tGL8r8c5I/JurWrFy+tN054zPltEmd5Q9bseFhFLYILxOOUWhlZnbmPDnpzs/QI+IA8Tuvu1dyA9JlRUVFdo5T5hKf8ESA19LRI0fUhBHZsWOHR6Cp8HqEVqxYceDAAXmUR5jgmJ5mPlWmGNbZF2YVNAsXsOienQ03ElmoU/SXL/ay8wswdpvz0xubs0MdZ3Z5empiamKSBSQXqAcT9dlpZkhmnGqXiYkronPZv3//rbfdJuzf51++MNnCq2nvvr2KjUEVcvPNN3sUCy8SWblyJa9ieVl9wuEY6OlIzc736In7Ku78aBx4ftw3eizzno+Nl2Mij/Jhu4qGJQFHu0tRc6V2Oh3nYIu5f+DpJA7pP6eYMj07NTXLVPPM9PnpGRZmWXAKMBx0UYRhp1QPnnwsLMetJmY5C87VOY+9mNi42Di+8ZjgnPzgfRn1k1RPU1PjuXPn3C2UpO3iN0wQ6OjoYNSp2JicnJzy8nKPYuFFIoWFhUajUV6m4n3a39lhzcqT0fYbLSnE8kGP4NFb91VrRvbih+Fwb0BIl2EW6o/hX4g/52dniJ+kSCJ40Hx09KggkRBfDf+rxyaQMCKKxzPLVlxc7FEsvEiEJhL9VZ5E6EBfR2vR2k2IGx6dca3idEuBof4+FKiuje4LhA4rKBW22O6Q+LmM2R4BnBrPnJYfJSEG/e1v7/zjP/1vjeZishI/zyd7WFf/zOsfOmJjomouGQmxpSe0Si7mzt5+ezfXSBZd58677rrLlW7GVTi8SASSI0gBFi+u9nld6O/qsg/2puryve6VNmYWFONfW3/6+Hwe0emNa67Zbky+GCFSphKxSw0CqH4NRtOwXUHh3d3dffDABzfedJOMCKnmdDJljlSPfLVx9KplTiksaj5EcUGRFbruwB0fHTvW1dmpeIqMjIz5ChGOCi8SQW1TVlb24YcfyveHoXtb7RlrZq4ktHstjOF56ZadaAqaqqvsbqHBUjNzVpVvTsspkDnWa4Vi40IIOJ2GsnMVSQQdzLt/+9vWrVsZaS5UVYDbJ6cu8MXsJsB6ltTh0zMze99/T1H8B5OdO3e60kS4QxReJELLPv/5zz/zzDOKcWJ7Olr7u9rQjLh3xmOZmRcCuDOuwdJ8zG5DA5JkTdcnmaEPP16G2JhyRltP9+SEI16jTUpJTc7MZtzkR1Ue7YyC1awVqzqaGxTjWldWVlTX1FxzzTVR0OWo6UJrS8vBgwcVu4Od+z333DN/LMOBYUciq1atKikpwXJOvlf4xbacrU5BGJE1pmbvVWSNysyRDEPl61xoL/LeUG93beXh3q6OyUtRsOERUnmXbt1pSc8SQo05NZ3MoYokggn8W2++UVa2KUZFaMWFLofYHkQEEENef+2viu9szkgcM69jGXaF3eiRZBY33nijK+G4DF4tdWcHu5UHcjI1qNyFD+5H773V1lDnYhAOJMxqT2fb0Xd397QpaHBUniWiixFvMatopZouMAtw+vRpNSVFmUVAoKG+/tDBQ2pOdOeddzJz6rVk2JEIcT+/+MUvuiKveW20tBGDh5qjBwh6KlMm8F3TExPVh/cPDfR7rWrUbjt9+AOsvLzuXVIbM/KKTJa/u4cv1Pf+/v5df3lJitW6UBmxfXEQQMR+9dVXuru7FE+Xn5//mc98ZqFiYUciNBQfwc2bN8uPU6T+9HZ0tNZWq5maWqj/ituHbf3EZJYphjt/d4szprlMmaWwixn3jPwiTNEUO3vkyGGcG3xFDL8vxZqXcoEEH/EB/4aGhsOHVIkhN910E0qGheANRxKhrV//+tfdAxYs1HqmaepOVhB73dc7cqEK52/v7WidP0nsXgyBaIDpMSxEl/aHSJF5JWtJaqUIAyPw5555Bv2IYkn3Ahgiuq+KZQ8ECgoKPLbIrxJ/6IU/PK8mcTf0/e1vf9urSlU6RZiSyLXXXrtlyxZ5FKS9jrHRmiMHxkdD5TWvZqgyNTWO+5ua1kZ3GYM5OX3OXVCxmydPnjisNJHvUcm2bdvVvFc8jloiqyaTafuOHT51turkySOHDysewoAAMWT16tUyJcOURAAF8lMpwfb3dNUcPYi/mUw//d5FqifFY3EhIQ+UYrGoL8ANl1tSqk30rn5z7z55Cf70xz+Ojfqgz8rNy7/p5pvVaNzdT7RElrdu27Zu7Tr1nQX/P774wrCKgDWEQbz33nvlaw7fWx/Lls997nMqb5qmM9WoP8mtJN9bP/ZaM7PlZ3DRBFtSM0IX/9mPNl/BQxBFsgoK1TSgvr7u+T887/L0UzyEZOf3/cvXcQUWcUncsYrXaHhS/u3f/i95Td23yy+/8vKuqqoq+TLS3uuuu+5Tn/qUfMmwsxNxNZcx2AMPPLB37962tjbXxoUXLjSfrdEZTSvWlRHgZ+FiPu8xWlJTM7N62hdsg2EuX4QaNbDP547AA3ClKVy7qeVcjWKALAxYd7/55nXXXlciKyq7MABhIgnc/38e2FRW9vKuXX29fXghu/YuwQWCeqSkWD9x++14EqBVVX8Hdnd17dq1i7AQiqAxfrz//vuJhyhfUsHvXv7gRdj74IMP/vjHP1bTYRrDsGLdlp1F68vkZQefmo3Ktr+z9cieN7xaUmm0ug3br89b7YMk6dPZI7EwAQWO732noeakmsYTI+sH/++HBhXqWPfamCHu7e3FUtsZ8WBJfqCMRIMhMyPDIz6QIhgkMHnkF7/Ys+dtxZKI2AwFMB9XFP3CnUQwK/jKV77y2muvKfZZKsBEY8nG8uJaE4XCAAATO0lEQVSNm69aHjQveHikp6WxtvJoX1e7axqIq5iUnLL66u2ZhSuCeC6V3QznYkBEjNgje14jqqNiO/GW+scv/tOXvvxlxZKiQOAIcGl2vfTSfz35BCGIFGsjzOBbb721adMmxZIxvOcVC13BArAg8QH+/Oc/MyOlphkEPRvs6Y6L05iSra6s1GoOlCnjZH2TGR8zo9kSFxevTdQnp2Xkr163qmxripLGRKbaaN0FXAhoGOkxO67YR2SK1tYWRigo8DhQsbwo4DcCMEh9Xd0Tv3pcMRY6p0AXic3nV7/6VTWnC3cSoQ8wImMzwiaq5BHCHva2txGwKzkjM4g8gmU3HiJ4muWVlPKbnJ7JoyLue683GbDoTUm2ni7H6IjXAu4bCWbR2NCwecsWNWG63Q8Uyz4hwIzMgw/+O/Hl1BxFZplHH33Uq8/u/MMjgERoNMLI4OAgwX5VmksTIMfW3zM+PGS2phMTQDzq8y98qLegn0Jq62xtVKO2GBjoHxtzlJWXK+rwQt3saK1/cnLquWefee/dd13jcZmeMsZkgPKxj31M5YMTvlO87p1ELf/d736XMNMoe9y3yyxjSNpcW3N839sjbsFEZMqLXcFFgPsPl7ysXFVmlMR3JaTFnrffZiG4zRC1SQjs2/v+m2++qQZeLhymnoxlVDII9UeGJEJDkXVvueWWffv2d3X54Lk7Yh/qa20iJrNhLoyIuKUWEwHuQoMlZbC7ndjaiudlAu7kyZMEgsjMylJ/+ypWKwogepyqqnr4pw8NKaW2k7Aiz+7TTz/Nr3ro1L7Y1dcYupJEZ3v00f9ct863+dRh+9DxD947c/TApMM3Z43QdWTp1Gy0JBeWblq+XJU5ErOPTz7xq7Nnzy4dfBahpy0tLY899ijaADXnYiCDfSoesGoKu8pEjCQitZjIKJDIO++8o8Zi19VJUiL0d3fa+3uTUqxCG+qCZREW5oQRC2Hl7IPeYyl4tIGJA5JLXHPNZrIye+wSq34ggIXEL37+M9xkVB5L2KGHHnrIVw13hJEIWJD5YsOGDYcPH1bjgOiOHZluu1ubyHprSEomf4qQmd3BCd0yhn9ma1p/Z9uEOkmwv6+vqbEJJauvt3LouhChNTMd89OHHiSvnRplKn3MzMz8y1/+wnva1/5GHonw8OMVXlRUdPToUZVCmguU6clJRJLhgV6jOQVFCVFXXbvEQogQ4HrFJySQJ6yvswORUM1ZUHvZBgfXrd+g0gNTTZ1LrczIyMhvn/rNnj17VDIIYcC+//3v33777X4AFXkkInWS5BLokBnXDA0N+dRtZhxHhmwdjcQ6HMMgLS4+ftkyYePkE4T+FDYkWS7MzPR1LuiC5FEpaUM6Ozu2bt0mJn09kFGzSqyWJ5984q+vvqqSQSD6L33pSz/84Q99NaKXGhOpJELr0bOSf+DMmTNdXV1q5q7c0eeVONjbPdDZijWaNtFARkj3vWI56AgwqEmypo7Y+pkvU1M5d39HezupataUlir6bqipcOmUGR0d+a8nn9yzezcujmp6jdkEEUMeeeQRv8O1RDCJABDjt+uvv76mpoYXl0rSdYd1fGysq7V5qLcr0WiESoSWxB2coC/D10nJqYNdqmZ8OTsvBi4rmq+ysnJmDYLenqisED3I07956q+vvqKSQQABVchzzz1HGmy/AYlsEqHbWOaSqoZXFgEj1bgVeSDF6GaU7BO1NcN9vRqdVqeHSoSixAOk4Kw6lSNaLZO+/V3tU+oiSPFiwCK+uvo0PCLmaxQvA4a/Dz347++o1oNQIQknn3jiiRtuuEGxcpkCEU8i9A1nIeQRNEPHjx/HEcMPkWQZjqdDg33tbbifko9Kk6BD/BaCicx9498uINXp9SCMbx4uTiorIdE0b4iCwgLhpLcQYtzz2IM88oufq5+LoSp4GT3IF77wBf9UIa7GRAOJ0BnEXWKykoKTrFdEmnB1z6eF6alJcoB3NjaM2QeRSsQAxyf0VBZG0CN5IDHo0Emp12Sh9sKeNS83Lz0jQ5D7fKhJ5fPzhx/GHkT9G5SZr/vuu+973/ueTATm+SfyuiVKSIS+cW8x9XvbbbcRq6a+vl5lHKP5oOD+K1EJpg14kfHaFGrX+SgFuIWAks6gDb1d6m96LuuxY0c1CQm5uXmB3/cBtj98Dsez7v333v3pTx9qVxUA8GLDeemiBPjlL3+JV1rgfYkeEpGwQMN86623IqdhPc1Uufp71ANKqGTUPtTd0mTr6Vx24bxOb0QvKN6BHij5vQqYlrT0CceIfYGsYF5rZqxaU13d19e7YcNGpn6X+OXg3mYq939+9+zzv/89ZjVeEfO6kemYT3/60zCI39MxHtWGe2Qzj+aqX2Xq9wc/+MEbb7zht0jifi6T2ZKWW5i9otiSmiliMrsjE8jyzPTU8b17ms+dQSflUz3r12/45/vuW7d+/ZLlERgEcfux//wP4i2rHxUCMgpE0tS+8sorQZw4jzZJxHUvktP3E5/4BFxLnGcMW/0WSaQKJyfGB3o6e1qb+7s6CFYSExvHSAflq+t0YsEPBObkkYzpcceQOs8a1yl6enoqKytIKpZfULAEZ38RQMjC/cSvfkWEIZ9ubBjk4x//+K9//WueDheYgS9ErSTiggaR5Ec/+tHrr7+OMOzaGOCCOSU1JSMru7iEDAmCSgIEc2p8vHLv7rbGel/lER6JnTuv/fK99/qa/C3ABl/Zw0md+5v//u/9+/b5atDAKAb/uqeeesonN381nY1+EpFQYFyDe+KhQ4d8kv0UEUxOTUvLK0zNzsPHLFZFmivFCpdgAd6l56enTx3aW19TpSYMmgdECJufvfPOO/7hHyxmi8euKFtFACFXxq5dL+Gj6GvXkNc++clPYlQWCnObqB3OeKCMQR7ORampqa2trShcVYZZ9Khk/io2r32d7b2drb3NTXgJazQJ8L1Qwc4HSmYLeg1pXHN+dsY20OcrjxB5t5oZzlOnDEYD1xfxJMoUJZAsQkfFRx89/thje97ePaIibZ0H2szm3n333WhSVcZM9ThccXWpSCIuILCkxkTv2WefJdSCa2OwFsi5aUlJTUpNt2blpmRmEds5WDUvhXounJ+tOXaovqpySkVCg/mA8Khs377jrrvvJsjw/L0RugUGaWxsfOH53x86fHjUd/qg14geX/va137yk5+EziV6yZEIsCKGVFdXP/bYY0SdxF4+uAMc6WZF7Zqg01nTM63ZeaS5NpgtDHai7A0ZiscSI7T2htpTRz4Ys9v9qz/JbN64cdM999xTVFxMqGj/KgmHo6ZnZpoaGtDlfbB//+DggE8KVFf7sWonOPE3vvGNkFrWLEUSkSCenp4mstGTTz5JPAGmb0JBJZwI4kg0mhINRsw0U3PySDoRGxuP9O7cIdKsuG52twWGMz1tTacO7RvyxYTErQLnIg8PVIKupKCwiCS+EQQ1ZAF9dHZ04ER38ODBrk4fIgq7g8CoGhAef/xxVCEhZRBOunRJREKca3bq1KmHH3743XffRSpxvwyhWCZBX5IlhUQWphQr0UyMlhQxueMV52HbYM3hfW0NdV73qtyo1eo2b9mMWcS27TtCJ8yrbIyaYpOTE8eOHnvvvfcOHTzoUBcIzmu1kCa9Rgmyfv16rwWCu3Gpk4iEJsq52tpaFCXk62xvb/d18syPS4I9PS6t2gStwZJstmbAKRptIiMgMeqRwHS+kCcmzlYcbj5XE2CEbZQCzpARN95I6FZmN4Ni6O3HFV/oEHo6NTXd3t52vLISB1xCMWHgv1BhNduZrkKNiqWlH4EO1dQ/v4wgkcswITTJSy+99Nvf/pZJnBANcC4736UV3HP0RhOBCIhsok+yWlLTEFJil3YQDcY1xNaur6poaziHXdklqPz8n5czFlala9dt27792p07E8MjEDS2S/jd7t27t6amurvLB0+ihVAgUtd3vvOd+++/P9RDGPcGCBJxR+PiMpbyL7/88gsvvMCglKA4vCu8FArxJuY9sbVHI0s+Sr3JnKDXE+xEqzfGaTRRNgIC3hnii4yNTY6PjY+NOobtw7aBkaHBYZsNv+pQwGw0GpHzN5WXr127Nj8vX6vTheIsC9WJ2Nvc3IRvV8VHFSeOVwYod7jOgiUIYUGYecQN1bVxcRYEiSyIM0GiCCzwpz/9affu3dhZY+pzRdiE9vEWjdfqEjTxTPpAIloEFkOSDpnFlBSfkEjkeuJBoKyNiYnFrycMlYjghliBGQjzYmQm5Hdmamp8dHjEPjhmH3KMDmO0iqyBQnHS4ZhRF8x5wcumegcWJQQosViSi1cWX7N5S15ertFkStTpg6uIpeuMVsYcY6MjIy0tzYxZoI++3l6SYwTFq0u6PRi5kC+GWZjg2rOrxFKQiDJQMMirr77KfPC+fft8jQutXHtgJeAUPKniNNp4TQJB1QmnRBR7tC3xGm1cArZvOkIZ8F00+zc4AiuPqcnx6cmJqYkJFvhFqTE5Pi4tI3Mgwweo5ggMM+9Hm0wmgpVkZWVlZmTikpOVnZWRmWVOSvKPlMmLhHajrbWttbWlg89cvFiIw/u5A9iKALJz586f/exnmzZtCqCagA4VJKIWPqRQboYXX3wRwQQtLMOcxVSaqG3lnNjCfS+xxlVXxVy1nNHPVTGkbIiLdQoy8U5xhm9MXBySy3KnEBM7J8vESra20onwMJQWpCQPyBHIEGxBmjjPCgE8p6dmZiGMKX6IDMLf7NQ0o4+pqcnzvHxnnbKHU/xwLjsX1Lf/ipd0yn1II3P4JCbqiJhnSU6xmM16o8FkNBLQRBMPO2uAi6ZOTvDPyYuYQY+MDJOqcnDQxr3B3IoTpLlPiO4TGrBqVcm//us3yZsbRJdcP/AXJOIzaAgjFRUVBw4cwI2BmHQMc9QHxfX5ZOIAgcA8BKAPhi2f/exnv/nNb+LP4Z+sNK9W/zcIEvEfO94wUMlbb72F/hXvjVAIq/43ThwZpQggGeGMS1jD8vLyMOmiIJFALwQCOzJsa2sbE3WYmTQ2NuKVcwW1sIH2RxwflgggbuA+t2PHjgceeIB0S6FwxvW734JE/IbOy4EMgVGXMKfjNDo8dIgY5SEaD3s5t9gUvQhglogFKvMvd9xxRximBBQkEsJbr66ujjgmDHZgFgxhxXgnhFgvW8bTxUwnqZgIDe9fMrOQNs+/yvPz87H++Na3vrU4Buz+NVKQiH+4+XAU5gCdTPd1dOCkw5CHoJj4+2GE4nA4GAr5UJEo6oYA4j2GHpiNMTHBvOy2bduY6SwpKUHjyHCSKXnMBRlahs610q0twV9E8UGnUJ3eeeeddCrMQ0AKEgn+HSBfI9wBj6CIJUAmAx+kFYQUMeqRB819L8RRUFDAo7Vh7kP0EF7X7gWkZRygsOt5/vnn33//feLszi8QnltwvSVT/V133UUwVKgkPBvp0SpBIh6ALN4qYgi2J3yam5uPHDkCs0ArvEX59PX1BcuccfH6E4IzMZfJg4QZWEqKNScnG5EeiQNbddSK+NGpcQ8BRuzKUVHhEkX6K9gkiKF2g9VjBI2cnBzYENHjlltuQYEa5qKHR8cFiXgAciVXueOxjmXgA61gHI0mhQ8jfF6q7JIsl6JyBCSNTVBq8JEGKZg/rF69GtZAqk9LS0PTkZKSEohBBOih5z5x4gTiCWEfoGlEQjZeETzpCD1FXYrHLZkbIY7NmzcXFxdHFne4HhVBIi4ownQBBiHDCGyCshDbNjgFouHDaD9CB/wAzVNkMBgQMSAIAqOiEOVVnJeXx4OE/xhbQnoxcN45duwY02ckb4asoexFc7Oky9BiaWkpVh5IVUzZYjIc0s4uQuWCRBYB5KCdgtcmnIJJtcMxzosUaxRUtojokAsRlRBheMHOSS1OyUX6UJ4R06LpXGAHKVLKnFSBZ4+GBX4ZgODthkABWfAUwRcM/tGJ8uGFnJiYKFmRBw0pdRUBEfbHzJrBJqi9+RACArcXsAU07Nj9xo3u0DX6xS99p7+MVhCsUOMwWuETbmFN1AHmvZQgEe+4ROhWBvw8A2gBpA/LfNjIc8ICDwzbeTaYG5LIxfWL5T4PDA+V1HEKsAojSI+308EmNpZdEASPB79sx4HEYNBDATwkrPKLyhOm4JcPgoYka0i/bKG28EcVlNBzQ81opuBlhBTyw0tCH+jB2tKgEqBgGcgRKPhAlJAF6hvYgREK4hWswS8fuBI5K1JUpP5dIEEi/uEmjhIICAQuIiASQYpbQSAgEAgIAUEiAcEnDhYICAQEiYh7QCAgEAgIAUEiAcEnDhYICAQEiYh7QCAgEAgIAUEiAcEnDhYICAQEiYh7QCAgEAgIAUEiAcEnDhYICAQEiYh7QCAgEAgIAUEiAcEnDhYICAQEiYh7QCAgEAgIAUEiAcEnDhYICAQEiYh7QCAgEAgIAUEiAcEnDhYICAQEiYh7QCAgEAgIAUEiAcEnDhYICAQEiYh7QCAgEAgIAUEiAcEnDhYICAQEiYh7QCAgEAgIAUEiAcEnDhYICAQEiYh7QCAgEAgIAUEiAcEnDhYICAQEiYh7QCAgEAgIAUEiAcEnDhYICAT+P3b8EfHwrr39AAAAAElFTkSuQmCC;" vertex="1" parent="1">
                    <mxGeometry x="-368" y="-31.5" width="153.33" height="240.94" as="geometry"/>
                </mxCell>
                <mxCell id="90" value="&lt;b&gt;&lt;font style=&quot;font-size: 24px;&quot;&gt;GitHub&lt;/font&gt;&lt;/b&gt;&lt;b style=&quot;color: rgb(63, 63, 63); background-color: transparent;&quot;&gt;&lt;font style=&quot;font-size: 24px;&quot;&gt;&amp;nbsp;Projects&lt;/font&gt;&lt;/b&gt;" style="text;html=1;align=center;verticalAlign=middle;whiteSpace=wrap;rounded=0;" vertex="1" parent="1">
                    <mxGeometry x="-320" y="252" width="64.16" height="30" as="geometry"/>
                </mxCell>
            </root>
        </mxGraphModel>
    </diagram>
</mxfile>